solid OpenSCAD_Model
  facet normal -1 0 0
    outer loop
      vertex 0 0 20
      vertex 0 10 22
      vertex 0 10 20
    endloop
  endfacet
  facet normal -1 -0 0
    outer loop
      vertex 0 10 22
      vertex 0 0 20
      vertex 0 0 22
    endloop
  endfacet
  facet normal 1 -0 0
    outer loop
      vertex 0 10 20
      vertex 0 76 2
      vertex 0 76 20
    endloop
  endfacet
  facet normal 1 0 0
    outer loop
      vertex 0 76 2
      vertex 0 10 20
      vertex 0 10 2
    endloop
  endfacet
  facet normal 0 0 1
    outer loop
      vertex 1 10 22
      vertex 0 10 22
      vertex 1 1 22
    endloop
  endfacet
  facet normal -0 0 1
    outer loop
      vertex 1 1 22
      vertex 10 0 22
      vertex 10 1 22
    endloop
  endfacet
  facet normal 0 0 1
    outer loop
      vertex 1 1 22
      vertex 0 0 22
      vertex 10 0 22
    endloop
  endfacet
  facet normal 0 0 1
    outer loop
      vertex 0 0 22
      vertex 1 1 22
      vertex 0 10 22
    endloop
  endfacet
  facet normal 1 0 0
    outer loop
      vertex 10 0 20
      vertex 10 1 22
      vertex 10 0 22
    endloop
  endfacet
  facet normal 1 0 0
    outer loop
      vertex 10 1 22
      vertex 10 0 20
      vertex 10 1 2
    endloop
  endfacet
  facet normal 1 0 0
    outer loop
      vertex 10 1 2
      vertex 10 0 20
      vertex 10 0 2
    endloop
  endfacet
  facet normal 0 1 -0
    outer loop
      vertex 10 1 2
      vertex 1 1 22
      vertex 10 1 22
    endloop
  endfacet
  facet normal 0 1 0
    outer loop
      vertex 1 1 22
      vertex 10 1 2
      vertex 1 1 2
    endloop
  endfacet
  facet normal 0 0 -1
    outer loop
      vertex 54.1256 -1.99605 0
      vertex 56 0 0
      vertex 55.9842 -0.250666 0
    endloop
  endfacet
  facet normal 0 0 -1
    outer loop
      vertex 56 0 0
      vertex -2 0 0
      vertex 56 86 0
    endloop
  endfacet
  facet normal 0 0 -1
    outer loop
      vertex 54.1256 -1.99605 0
      vertex 55.9842 -0.250666 0
      vertex 55.9372 -0.497379 0
    endloop
  endfacet
  facet normal 0 0 -1
    outer loop
      vertex -2 86 0
      vertex 56 86 0
      vertex -2 0 0
    endloop
  endfacet
  facet normal 0 0 -1
    outer loop
      vertex 54.1256 -1.99605 0
      vertex 55.9372 -0.497379 0
      vertex 55.8596 -0.736249 0
    endloop
  endfacet
  facet normal 0 -0 -1
    outer loop
      vertex 54.1256 87.9961 0
      vertex 56 86 0
      vertex -2 86 0
    endloop
  endfacet
  facet normal 0 0 -1
    outer loop
      vertex 54.1256 -1.99605 0
      vertex 55.8596 -0.736249 0
      vertex 55.7526 -0.963507 0
    endloop
  endfacet
  facet normal 0 0 -1
    outer loop
      vertex 56 86 0
      vertex 54.1256 87.9961 0
      vertex 55.9842 86.2507 0
    endloop
  endfacet
  facet normal 0 0 -1
    outer loop
      vertex 54.1256 -1.99605 0
      vertex 55.7526 -0.963507 0
      vertex 55.618 -1.17557 0
    endloop
  endfacet
  facet normal -0 0 -1
    outer loop
      vertex 56 0 0
      vertex 54.1256 -1.99605 0
      vertex -2 0 0
    endloop
  endfacet
  facet normal 0 0 -1
    outer loop
      vertex 54.1256 -1.99605 0
      vertex 55.618 -1.17557 0
      vertex 55.4579 -1.36909 0
    endloop
  endfacet
  facet normal 0 0 -1
    outer loop
      vertex 55.9842 86.2507 0
      vertex 54.1256 87.9961 0
      vertex 55.9372 86.4974 0
    endloop
  endfacet
  facet normal 0 0 -1
    outer loop
      vertex 54.1256 -1.99605 0
      vertex 55.4579 -1.36909 0
      vertex 55.2748 -1.54103 0
    endloop
  endfacet
  facet normal 0 0 -1
    outer loop
      vertex 55.7526 86.9635 0
      vertex 54.1256 87.9961 0
      vertex 55.618 87.1756 0
    endloop
  endfacet
  facet normal 0 0 -1
    outer loop
      vertex 54.1256 -1.99605 0
      vertex 55.2748 -1.54103 0
      vertex 55.0717 -1.68865 0
    endloop
  endfacet
  facet normal 0 0 -1
    outer loop
      vertex 55.618 87.1756 0
      vertex 54.1256 87.9961 0
      vertex 55.4579 87.3691 0
    endloop
  endfacet
  facet normal 0 0 -1
    outer loop
      vertex 54.1256 -1.99605 0
      vertex 55.0717 -1.68865 0
      vertex 54.8516 -1.80965 0
    endloop
  endfacet
  facet normal 0 0 -1
    outer loop
      vertex 55.4579 87.3691 0
      vertex 54.1256 87.9961 0
      vertex 55.2748 87.541 0
    endloop
  endfacet
  facet normal 0 0 -1
    outer loop
      vertex 54.1256 -1.99605 0
      vertex 54.8516 -1.80965 0
      vertex 54.618 -1.90211 0
    endloop
  endfacet
  facet normal 0 0 -1
    outer loop
      vertex 55.2748 87.541 0
      vertex 54.1256 87.9961 0
      vertex 55.0717 87.6887 0
    endloop
  endfacet
  facet normal 0 0 -1
    outer loop
      vertex 54.1256 -1.99605 0
      vertex 54.618 -1.90211 0
      vertex 54.3748 -1.96457 0
    endloop
  endfacet
  facet normal 0 0 -1
    outer loop
      vertex 55.0717 87.6887 0
      vertex 54.1256 87.9961 0
      vertex 54.8516 87.8097 0
    endloop
  endfacet
  facet normal 0 0 -1
    outer loop
      vertex 54.8516 87.8097 0
      vertex 54.1256 87.9961 0
      vertex 54.618 87.9021 0
    endloop
  endfacet
  facet normal 0 0 -1
    outer loop
      vertex 54.618 87.9021 0
      vertex 54.1256 87.9961 0
      vertex 54.3748 87.9646 0
    endloop
  endfacet
  facet normal 0 0 -1
    outer loop
      vertex -2 0 0
      vertex 54.1256 -1.99605 0
      vertex -0.125581 -1.99605 0
    endloop
  endfacet
  facet normal 0 0 -1
    outer loop
      vertex 55.9372 86.4974 0
      vertex 54.1256 87.9961 0
      vertex 55.8596 86.7363 0
    endloop
  endfacet
  facet normal 0 0 -1
    outer loop
      vertex -2 0 0
      vertex -0.125581 -1.99605 0
      vertex -0.374763 -1.96457 0
    endloop
  endfacet
  facet normal 0 0 -1
    outer loop
      vertex 55.8596 86.7363 0
      vertex 54.1256 87.9961 0
      vertex 55.7526 86.9635 0
    endloop
  endfacet
  facet normal 0 0 -1
    outer loop
      vertex -2 0 0
      vertex -0.374763 -1.96457 0
      vertex -0.618033 -1.90211 0
    endloop
  endfacet
  facet normal -0 0 -1
    outer loop
      vertex 54.1256 87.9961 0
      vertex -2 86 0
      vertex -0.125581 87.9961 0
    endloop
  endfacet
  facet normal 0 0 -1
    outer loop
      vertex -2 0 0
      vertex -0.618033 -1.90211 0
      vertex -0.851558 -1.80965 0
    endloop
  endfacet
  facet normal 0 0 -1
    outer loop
      vertex -0.125581 87.9961 0
      vertex -2 86 0
      vertex -0.374763 87.9646 0
    endloop
  endfacet
  facet normal 0 0 -1
    outer loop
      vertex -2 0 0
      vertex -0.851558 -1.80965 0
      vertex -1.07165 -1.68865 0
    endloop
  endfacet
  facet normal 0 0 -1
    outer loop
      vertex -0.374763 87.9646 0
      vertex -2 86 0
      vertex -0.618033 87.9021 0
    endloop
  endfacet
  facet normal 0 0 -1
    outer loop
      vertex -2 0 0
      vertex -1.07165 -1.68865 0
      vertex -1.27485 -1.54103 0
    endloop
  endfacet
  facet normal 0 0 -1
    outer loop
      vertex -0.618033 87.9021 0
      vertex -2 86 0
      vertex -0.851558 87.8097 0
    endloop
  endfacet
  facet normal 0 0 -1
    outer loop
      vertex -2 0 0
      vertex -1.27485 -1.54103 0
      vertex -1.45794 -1.36909 0
    endloop
  endfacet
  facet normal 0 0 -1
    outer loop
      vertex -0.851558 87.8097 0
      vertex -2 86 0
      vertex -1.07165 87.6887 0
    endloop
  endfacet
  facet normal 0 0 -1
    outer loop
      vertex -2 0 0
      vertex -1.45794 -1.36909 0
      vertex -1.61803 -1.17557 0
    endloop
  endfacet
  facet normal 0 0 -1
    outer loop
      vertex -1.07165 87.6887 0
      vertex -2 86 0
      vertex -1.27485 87.541 0
    endloop
  endfacet
  facet normal 0 0 -1
    outer loop
      vertex -2 0 0
      vertex -1.61803 -1.17557 0
      vertex -1.75261 -0.963507 0
    endloop
  endfacet
  facet normal 0 0 -1
    outer loop
      vertex -1.27485 87.541 0
      vertex -2 86 0
      vertex -1.45794 87.3691 0
    endloop
  endfacet
  facet normal 0 0 -1
    outer loop
      vertex -2 0 0
      vertex -1.75261 -0.963507 0
      vertex -1.85955 -0.736249 0
    endloop
  endfacet
  facet normal 0 0 -1
    outer loop
      vertex -1.45794 87.3691 0
      vertex -2 86 0
      vertex -1.61803 87.1756 0
    endloop
  endfacet
  facet normal 0 0 -1
    outer loop
      vertex -2 0 0
      vertex -1.85955 -0.736249 0
      vertex -1.93717 -0.497379 0
    endloop
  endfacet
  facet normal 0 0 -1
    outer loop
      vertex -1.61803 87.1756 0
      vertex -2 86 0
      vertex -1.75261 86.9635 0
    endloop
  endfacet
  facet normal 0 0 -1
    outer loop
      vertex -2 0 0
      vertex -1.93717 -0.497379 0
      vertex -1.98423 -0.250666 0
    endloop
  endfacet
  facet normal 0 0 -1
    outer loop
      vertex -1.75261 86.9635 0
      vertex -2 86 0
      vertex -1.85955 86.7363 0
    endloop
  endfacet
  facet normal 0 0 -1
    outer loop
      vertex -1.85955 86.7363 0
      vertex -2 86 0
      vertex -1.93717 86.4974 0
    endloop
  endfacet
  facet normal 0 0 -1
    outer loop
      vertex -1.93717 86.4974 0
      vertex -2 86 0
      vertex -1.98423 86.2507 0
    endloop
  endfacet
  facet normal 0 1 -0
    outer loop
      vertex 54 0 2
      vertex 10 0 20
      vertex 54 0 20
    endloop
  endfacet
  facet normal 0 1 0
    outer loop
      vertex 10 0 20
      vertex 54 0 2
      vertex 10 0 2
    endloop
  endfacet
  facet normal 0 -1 0
    outer loop
      vertex 0 0 20
      vertex 10 0 22
      vertex 0 0 22
    endloop
  endfacet
  facet normal 0 -1 -0
    outer loop
      vertex 10 0 22
      vertex 0 0 20
      vertex 10 0 20
    endloop
  endfacet
  facet normal 1 -0 0
    outer loop
      vertex 1 1 22
      vertex 1 10 2
      vertex 1 10 22
    endloop
  endfacet
  facet normal 1 0 0
    outer loop
      vertex 1 10 2
      vertex 1 1 22
      vertex 1 1 2
    endloop
  endfacet
  facet normal 0 1 0
    outer loop
      vertex 1 10 22
      vertex 0 10 20
      vertex 0 10 22
    endloop
  endfacet
  facet normal 0 1 -0
    outer loop
      vertex 1 10 2
      vertex 0 10 20
      vertex 1 10 22
    endloop
  endfacet
  facet normal 0 1 0
    outer loop
      vertex 0 10 20
      vertex 1 10 2
      vertex 0 10 2
    endloop
  endfacet
  facet normal -2.22045e-16 -1 0
    outer loop
      vertex 44 2.22045e-15 22
      vertex 54 0 20
      vertex 54 0 22
    endloop
  endfacet
  facet normal -2.22045e-16 -1 0
    outer loop
      vertex 44 2.22045e-15 2
      vertex 54 0 20
      vertex 44 2.22045e-15 22
    endloop
  endfacet
  facet normal -2.22045e-16 -1 -0
    outer loop
      vertex 54 0 20
      vertex 44 2.22045e-15 2
      vertex 54 0 2
    endloop
  endfacet
  facet normal 0 0 1
    outer loop
      vertex 53 1 22
      vertex 54 10 22
      vertex 53 10 22
    endloop
  endfacet
  facet normal 0 0 1
    outer loop
      vertex 54 10 22
      vertex 53 1 22
      vertex 54 0 22
    endloop
  endfacet
  facet normal 0 0 1
    outer loop
      vertex 44 2.22045e-15 22
      vertex 53 1 22
      vertex 44 1 22
    endloop
  endfacet
  facet normal 0 0 1
    outer loop
      vertex 53 1 22
      vertex 44 2.22045e-15 22
      vertex 54 0 22
    endloop
  endfacet
  facet normal 0 1 -0
    outer loop
      vertex 54 10 20
      vertex 53 10 22
      vertex 54 10 22
    endloop
  endfacet
  facet normal 0 1 0
    outer loop
      vertex 53 10 2
      vertex 54 10 20
      vertex 54 10 2
    endloop
  endfacet
  facet normal 0 1 0
    outer loop
      vertex 54 10 20
      vertex 53 10 2
      vertex 53 10 22
    endloop
  endfacet
  facet normal 1 -0 0
    outer loop
      vertex 54 0 22
      vertex 54 10 20
      vertex 54 10 22
    endloop
  endfacet
  facet normal 1 0 0
    outer loop
      vertex 54 10 20
      vertex 54 0 22
      vertex 54 0 20
    endloop
  endfacet
  facet normal -1 0 0
    outer loop
      vertex 53 1 2
      vertex 53 10 22
      vertex 53 10 2
    endloop
  endfacet
  facet normal -1 -0 0
    outer loop
      vertex 53 10 22
      vertex 53 1 2
      vertex 53 1 22
    endloop
  endfacet
  facet normal 0 1 -0
    outer loop
      vertex 53 1 2
      vertex 44 1 22
      vertex 53 1 22
    endloop
  endfacet
  facet normal 0 1 0
    outer loop
      vertex 44 1 22
      vertex 53 1 2
      vertex 44 1 2
    endloop
  endfacet
  facet normal -1 0 0
    outer loop
      vertex 44 2.22045e-15 2
      vertex 44 1 22
      vertex 44 1 2
    endloop
  endfacet
  facet normal -1 -0 0
    outer loop
      vertex 44 1 22
      vertex 44 2.22045e-15 2
      vertex 44 2.22045e-15 22
    endloop
  endfacet
  facet normal 1 -0 0
    outer loop
      vertex 54 76 22
      vertex 54 86 20
      vertex 54 86 22
    endloop
  endfacet
  facet normal 1 0 0
    outer loop
      vertex 54 76 2
      vertex 54 86 20
      vertex 54 76 22
    endloop
  endfacet
  facet normal 1 0 0
    outer loop
      vertex 54 86 20
      vertex 54 76 2
      vertex 54 86 2
    endloop
  endfacet
  facet normal 0 0 1
    outer loop
      vertex 54 86 22
      vertex 53 85 22
      vertex 54 76 22
    endloop
  endfacet
  facet normal -0 0 1
    outer loop
      vertex 44 86 22
      vertex 53 85 22
      vertex 54 86 22
    endloop
  endfacet
  facet normal 0 0 1
    outer loop
      vertex 53 85 22
      vertex 44 86 22
      vertex 44 85 22
    endloop
  endfacet
  facet normal 0 0 1
    outer loop
      vertex 54 76 22
      vertex 53 85 22
      vertex 53 76 22
    endloop
  endfacet
  facet normal -1 0 0
    outer loop
      vertex 44 85 2
      vertex 44 86 20
      vertex 44 86 2
    endloop
  endfacet
  facet normal -1 0 0
    outer loop
      vertex 44 85 22
      vertex 44 86 20
      vertex 44 85 2
    endloop
  endfacet
  facet normal -1 0 0
    outer loop
      vertex 44 86 20
      vertex 44 85 22
      vertex 44 86 22
    endloop
  endfacet
  facet normal 0 1 -0
    outer loop
      vertex 54 86 20
      vertex 44 86 22
      vertex 54 86 22
    endloop
  endfacet
  facet normal 0 1 0
    outer loop
      vertex 44 86 22
      vertex 54 86 20
      vertex 44 86 20
    endloop
  endfacet
  facet normal 0 -1 0
    outer loop
      vertex 44 85 2
      vertex 53 85 22
      vertex 44 85 22
    endloop
  endfacet
  facet normal 0 -1 -0
    outer loop
      vertex 53 85 22
      vertex 44 85 2
      vertex 53 85 2
    endloop
  endfacet
  facet normal -1 0 0
    outer loop
      vertex 53 76 2
      vertex 53 85 22
      vertex 53 85 2
    endloop
  endfacet
  facet normal -1 -0 0
    outer loop
      vertex 53 85 22
      vertex 53 76 2
      vertex 53 76 22
    endloop
  endfacet
  facet normal 0 -1 0
    outer loop
      vertex 53 76 2
      vertex 54 76 22
      vertex 53 76 22
    endloop
  endfacet
  facet normal 0 -1 -0
    outer loop
      vertex 54 76 22
      vertex 53 76 2
      vertex 54 76 2
    endloop
  endfacet
  facet normal 0 1 0
    outer loop
      vertex 10 86 22
      vertex 0 86 20
      vertex 0 86 22
    endloop
  endfacet
  facet normal 0 1 -0
    outer loop
      vertex 10 86 2
      vertex 0 86 20
      vertex 10 86 22
    endloop
  endfacet
  facet normal 0 1 0
    outer loop
      vertex 0 86 20
      vertex 10 86 2
      vertex 0 86 2
    endloop
  endfacet
  facet normal 0 0 1
    outer loop
      vertex 10 86 22
      vertex 1 85 22
      vertex 10 85 22
    endloop
  endfacet
  facet normal -0 0 1
    outer loop
      vertex 0 86 22
      vertex 1 85 22
      vertex 10 86 22
    endloop
  endfacet
  facet normal 0 0 1
    outer loop
      vertex -2.22045e-15 76 22
      vertex 1 85 22
      vertex 0 86 22
    endloop
  endfacet
  facet normal 0 0 1
    outer loop
      vertex 1 85 22
      vertex -2.22045e-15 76 22
      vertex 1 76 22
    endloop
  endfacet
  facet normal 0 -1 0
    outer loop
      vertex 0 76 20
      vertex -2.22045e-15 76 22
      vertex -2.22045e-15 76 20
    endloop
  endfacet
  facet normal 0 -1 0
    outer loop
      vertex -2.22045e-15 76 22
      vertex 0 76 20
      vertex 1 76 22
    endloop
  endfacet
  facet normal 0 -1 0
    outer loop
      vertex 1 76 2
      vertex 0 76 20
      vertex 0 76 2
    endloop
  endfacet
  facet normal 0 -1 0
    outer loop
      vertex 0 76 20
      vertex 1 76 2
      vertex 1 76 22
    endloop
  endfacet
  facet normal -1 2.22045e-16 0
    outer loop
      vertex -2.22045e-15 76 20
      vertex 0 86 22
      vertex 0 86 20
    endloop
  endfacet
  facet normal -1 2.22045e-16 0
    outer loop
      vertex 0 86 22
      vertex -2.22045e-15 76 20
      vertex -2.22045e-15 76 22
    endloop
  endfacet
  facet normal 1 -0 0
    outer loop
      vertex 1 76 22
      vertex 1 85 2
      vertex 1 85 22
    endloop
  endfacet
  facet normal 1 0 0
    outer loop
      vertex 1 85 2
      vertex 1 76 22
      vertex 1 76 2
    endloop
  endfacet
  facet normal 0 -1 0
    outer loop
      vertex 1 85 2
      vertex 10 85 22
      vertex 1 85 22
    endloop
  endfacet
  facet normal 0 -1 -0
    outer loop
      vertex 10 85 22
      vertex 1 85 2
      vertex 10 85 2
    endloop
  endfacet
  facet normal 1 -0 0
    outer loop
      vertex 10 85 22
      vertex 10 86 2
      vertex 10 86 22
    endloop
  endfacet
  facet normal 1 0 0
    outer loop
      vertex 10 86 2
      vertex 10 85 22
      vertex 10 85 2
    endloop
  endfacet
  facet normal 0 -1 0
    outer loop
      vertex -0.125581 -1.99605 0
      vertex 54.1256 -1.99605 20
      vertex -0.125581 -1.99605 20
    endloop
  endfacet
  facet normal 0 -1 -0
    outer loop
      vertex 54.1256 -1.99605 20
      vertex -0.125581 -1.99605 0
      vertex 54.1256 -1.99605 0
    endloop
  endfacet
  facet normal -1 0 0
    outer loop
      vertex -2 0 0
      vertex -2 86 20
      vertex -2 86 0
    endloop
  endfacet
  facet normal -1 -0 0
    outer loop
      vertex -2 86 20
      vertex -2 0 0
      vertex -2 0 20
    endloop
  endfacet
  facet normal -0.125333 -0.992115 0
    outer loop
      vertex -0.374763 -1.96457 0
      vertex -0.125581 -1.99605 20
      vertex -0.374763 -1.96457 20
    endloop
  endfacet
  facet normal -0.125333 -0.992115 -0
    outer loop
      vertex -0.125581 -1.99605 20
      vertex -0.374763 -1.96457 0
      vertex -0.125581 -1.99605 0
    endloop
  endfacet
  facet normal 1 -0 0
    outer loop
      vertex 56 0 20
      vertex 56 86 0
      vertex 56 86 20
    endloop
  endfacet
  facet normal 1 0 0
    outer loop
      vertex 56 86 0
      vertex 56 0 20
      vertex 56 0 0
    endloop
  endfacet
  facet normal -0.684545 -0.72897 0
    outer loop
      vertex -1.45794 -1.36909 0
      vertex -1.27485 -1.54103 20
      vertex -1.45794 -1.36909 20
    endloop
  endfacet
  facet normal -0.684545 -0.72897 -0
    outer loop
      vertex -1.27485 -1.54103 20
      vertex -1.45794 -1.36909 0
      vertex -1.27485 -1.54103 0
    endloop
  endfacet
  facet normal -0.77052 0.637416 0
    outer loop
      vertex -1.61803 87.1756 0
      vertex -1.45794 87.3691 20
      vertex -1.45794 87.3691 0
    endloop
  endfacet
  facet normal -0.77052 0.637416 0
    outer loop
      vertex -1.45794 87.3691 20
      vertex -1.61803 87.1756 0
      vertex -1.61803 87.1756 20
    endloop
  endfacet
  facet normal 0.770516 -0.637421 0
    outer loop
      vertex 55.4579 -1.36909 20
      vertex 55.618 -1.17557 0
      vertex 55.618 -1.17557 20
    endloop
  endfacet
  facet normal 0.770516 -0.637421 0
    outer loop
      vertex 55.618 -1.17557 0
      vertex 55.4579 -1.36909 20
      vertex 55.4579 -1.36909 0
    endloop
  endfacet
  facet normal 0.904829 0.425774 0
    outer loop
      vertex 55.8596 86.7363 20
      vertex 55.7526 86.9635 0
      vertex 55.7526 86.9635 20
    endloop
  endfacet
  facet normal 0.904829 0.425774 0
    outer loop
      vertex 55.7526 86.9635 0
      vertex 55.8596 86.7363 20
      vertex 55.8596 86.7363 0
    endloop
  endfacet
  facet normal 0 1 0
    outer loop
      vertex 54.1256 87.9961 20
      vertex 37 87.9961 18
      vertex 37 87.9961 20
    endloop
  endfacet
  facet normal 0 1 0
    outer loop
      vertex 37 87.9961 18
      vertex 54.1256 87.9961 0
      vertex 17 87.9961 18
    endloop
  endfacet
  facet normal 0 1 -0
    outer loop
      vertex 54.1256 87.9961 0
      vertex 37 87.9961 18
      vertex 54.1256 87.9961 20
    endloop
  endfacet
  facet normal 0 1 -0
    outer loop
      vertex 17 87.9961 18
      vertex -0.125581 87.9961 20
      vertex 17 87.9961 20
    endloop
  endfacet
  facet normal 0 1 0
    outer loop
      vertex -0.125581 87.9961 0
      vertex 17 87.9961 18
      vertex 54.1256 87.9961 0
    endloop
  endfacet
  facet normal 0 1 0
    outer loop
      vertex 17 87.9961 18
      vertex -0.125581 87.9961 0
      vertex -0.125581 87.9961 20
    endloop
  endfacet
  facet normal 0.368131 0.929774 -0
    outer loop
      vertex 54.8516 87.8097 0
      vertex 54.618 87.9021 20
      vertex 54.8516 87.8097 20
    endloop
  endfacet
  facet normal 0.368131 0.929774 0
    outer loop
      vertex 54.618 87.9021 20
      vertex 54.8516 87.8097 0
      vertex 54.618 87.9021 0
    endloop
  endfacet
  facet normal -0.368128 -0.929775 0
    outer loop
      vertex -0.851558 -1.80965 0
      vertex -0.618033 -1.90211 20
      vertex -0.851558 -1.80965 20
    endloop
  endfacet
  facet normal -0.368128 -0.929775 -0
    outer loop
      vertex -0.618033 -1.90211 20
      vertex -0.851558 -1.80965 0
      vertex -0.618033 -1.90211 0
    endloop
  endfacet
  facet normal -0.998027 0.0627924 0
    outer loop
      vertex -2 86 0
      vertex -1.98423 86.2507 20
      vertex -1.98423 86.2507 0
    endloop
  endfacet
  facet normal -0.998027 0.0627924 0
    outer loop
      vertex -1.98423 86.2507 20
      vertex -2 86 0
      vertex -2 86 20
    endloop
  endfacet
  facet normal -0.904827 -0.425779 0
    outer loop
      vertex -1.75261 -0.963507 0
      vertex -1.85955 -0.736249 20
      vertex -1.85955 -0.736249 0
    endloop
  endfacet
  facet normal -0.904827 -0.425779 0
    outer loop
      vertex -1.85955 -0.736249 20
      vertex -1.75261 -0.963507 0
      vertex -1.75261 -0.963507 20
    endloop
  endfacet
  facet normal -0.844328 -0.535826 0
    outer loop
      vertex -1.61803 -1.17557 0
      vertex -1.75261 -0.963507 20
      vertex -1.75261 -0.963507 0
    endloop
  endfacet
  facet normal -0.844328 -0.535826 0
    outer loop
      vertex -1.75261 -0.963507 20
      vertex -1.61803 -1.17557 0
      vertex -1.61803 -1.17557 20
    endloop
  endfacet
  facet normal 0.125332 -0.992115 0
    outer loop
      vertex 54.1256 -1.99605 0
      vertex 54.3748 -1.96457 20
      vertex 54.1256 -1.99605 20
    endloop
  endfacet
  facet normal 0.125332 -0.992115 0
    outer loop
      vertex 54.3748 -1.96457 20
      vertex 54.1256 -1.99605 0
      vertex 54.3748 -1.96457 0
    endloop
  endfacet
  facet normal 0.951056 -0.309018 0
    outer loop
      vertex 55.8596 -0.736249 20
      vertex 55.9372 -0.497379 0
      vertex 55.9372 -0.497379 20
    endloop
  endfacet
  facet normal 0.951056 -0.309018 0
    outer loop
      vertex 55.9372 -0.497379 0
      vertex 55.8596 -0.736249 20
      vertex 55.8596 -0.736249 0
    endloop
  endfacet
  facet normal 0.481763 0.876302 -0
    outer loop
      vertex 55.0717 87.6887 0
      vertex 54.8516 87.8097 20
      vertex 55.0717 87.6887 20
    endloop
  endfacet
  facet normal 0.481763 0.876302 0
    outer loop
      vertex 54.8516 87.8097 20
      vertex 55.0717 87.6887 0
      vertex 54.8516 87.8097 0
    endloop
  endfacet
  facet normal 0.844324 0.535832 0
    outer loop
      vertex 55.7526 86.9635 20
      vertex 55.618 87.1756 0
      vertex 55.618 87.1756 20
    endloop
  endfacet
  facet normal 0.844324 0.535832 0
    outer loop
      vertex 55.618 87.1756 0
      vertex 55.7526 86.9635 20
      vertex 55.7526 86.9635 0
    endloop
  endfacet
  facet normal 0.951059 0.309011 0
    outer loop
      vertex 55.9372 86.4974 20
      vertex 55.8596 86.7363 0
      vertex 55.8596 86.7363 20
    endloop
  endfacet
  facet normal 0.951059 0.309011 0
    outer loop
      vertex 55.8596 86.7363 0
      vertex 55.9372 86.4974 20
      vertex 55.9372 86.4974 0
    endloop
  endfacet
  facet normal 0.982285 0.187393 0
    outer loop
      vertex 55.9842 86.2507 20
      vertex 55.9372 86.4974 0
      vertex 55.9372 86.4974 20
    endloop
  endfacet
  facet normal 0.982285 0.187393 0
    outer loop
      vertex 55.9372 86.4974 0
      vertex 55.9842 86.2507 20
      vertex 55.9842 86.2507 0
    endloop
  endfacet
  facet normal -0.248688 -0.968584 0
    outer loop
      vertex -0.618033 -1.90211 0
      vertex -0.374763 -1.96457 20
      vertex -0.618033 -1.90211 20
    endloop
  endfacet
  facet normal -0.248688 -0.968584 -0
    outer loop
      vertex -0.374763 -1.96457 20
      vertex -0.618033 -1.90211 0
      vertex -0.374763 -1.96457 0
    endloop
  endfacet
  facet normal -0.904826 0.425781 0
    outer loop
      vertex -1.85955 86.7363 0
      vertex -1.75261 86.9635 20
      vertex -1.75261 86.9635 0
    endloop
  endfacet
  facet normal -0.904826 0.425781 0
    outer loop
      vertex -1.75261 86.9635 20
      vertex -1.85955 86.7363 0
      vertex -1.85955 86.7363 20
    endloop
  endfacet
  facet normal -0.951059 0.309011 0
    outer loop
      vertex -1.93717 86.4974 0
      vertex -1.85955 86.7363 20
      vertex -1.85955 86.7363 0
    endloop
  endfacet
  facet normal -0.951059 0.309011 0
    outer loop
      vertex -1.85955 86.7363 20
      vertex -1.93717 86.4974 0
      vertex -1.93717 86.4974 20
    endloop
  endfacet
  facet normal -0.368131 0.929774 0
    outer loop
      vertex -0.618033 87.9021 0
      vertex -0.851558 87.8097 20
      vertex -0.618033 87.9021 20
    endloop
  endfacet
  facet normal -0.368131 0.929774 0
    outer loop
      vertex -0.851558 87.8097 20
      vertex -0.618033 87.9021 0
      vertex -0.851558 87.8097 0
    endloop
  endfacet
  facet normal -0.481753 -0.876307 0
    outer loop
      vertex -1.07165 -1.68865 0
      vertex -0.851558 -1.80965 20
      vertex -1.07165 -1.68865 20
    endloop
  endfacet
  facet normal -0.481753 -0.876307 -0
    outer loop
      vertex -0.851558 -1.80965 20
      vertex -1.07165 -1.68865 0
      vertex -0.851558 -1.80965 0
    endloop
  endfacet
  facet normal -0.951056 -0.309018 0
    outer loop
      vertex -1.85955 -0.736249 0
      vertex -1.93717 -0.497379 20
      vertex -1.93717 -0.497379 0
    endloop
  endfacet
  facet normal -0.951056 -0.309018 0
    outer loop
      vertex -1.93717 -0.497379 20
      vertex -1.85955 -0.736249 0
      vertex -1.85955 -0.736249 20
    endloop
  endfacet
  facet normal -0.770514 -0.637423 0
    outer loop
      vertex -1.45794 -1.36909 0
      vertex -1.61803 -1.17557 20
      vertex -1.61803 -1.17557 0
    endloop
  endfacet
  facet normal -0.770514 -0.637423 0
    outer loop
      vertex -1.61803 -1.17557 20
      vertex -1.45794 -1.36909 0
      vertex -1.45794 -1.36909 20
    endloop
  endfacet
  facet normal 0.84433 -0.535824 0
    outer loop
      vertex 55.618 -1.17557 20
      vertex 55.7526 -0.963507 0
      vertex 55.7526 -0.963507 20
    endloop
  endfacet
  facet normal 0.84433 -0.535824 0
    outer loop
      vertex 55.7526 -0.963507 0
      vertex 55.618 -1.17557 20
      vertex 55.618 -1.17557 0
    endloop
  endfacet
  facet normal 0.982285 -0.187391 0
    outer loop
      vertex 55.9372 -0.497379 20
      vertex 55.9842 -0.250666 0
      vertex 55.9842 -0.250666 20
    endloop
  endfacet
  facet normal 0.982285 -0.187391 0
    outer loop
      vertex 55.9842 -0.250666 0
      vertex 55.9372 -0.497379 20
      vertex 55.9372 -0.497379 0
    endloop
  endfacet
  facet normal 0.998027 0.0627887 0
    outer loop
      vertex 56 86 20
      vertex 55.9842 86.2507 0
      vertex 55.9842 86.2507 20
    endloop
  endfacet
  facet normal 0.998027 0.0627887 0
    outer loop
      vertex 55.9842 86.2507 0
      vertex 56 86 20
      vertex 56 86 0
    endloop
  endfacet
  facet normal 0.770522 0.637414 0
    outer loop
      vertex 55.618 87.1756 20
      vertex 55.4579 87.3691 0
      vertex 55.4579 87.3691 20
    endloop
  endfacet
  facet normal 0.770522 0.637414 0
    outer loop
      vertex 55.4579 87.3691 0
      vertex 55.618 87.1756 20
      vertex 55.618 87.1756 0
    endloop
  endfacet
  facet normal 0.248692 0.968583 -0
    outer loop
      vertex 54.618 87.9021 0
      vertex 54.3748 87.9646 20
      vertex 54.618 87.9021 20
    endloop
  endfacet
  facet normal 0.248692 0.968583 0
    outer loop
      vertex 54.3748 87.9646 20
      vertex 54.618 87.9021 0
      vertex 54.3748 87.9646 0
    endloop
  endfacet
  facet normal 0.125332 0.992115 -0
    outer loop
      vertex 54.3748 87.9646 0
      vertex 54.1256 87.9961 20
      vertex 54.3748 87.9646 20
    endloop
  endfacet
  facet normal 0.125332 0.992115 0
    outer loop
      vertex 54.1256 87.9961 20
      vertex 54.3748 87.9646 0
      vertex 54.1256 87.9961 0
    endloop
  endfacet
  facet normal -0.844323 0.535835 0
    outer loop
      vertex -1.75261 86.9635 0
      vertex -1.61803 87.1756 20
      vertex -1.61803 87.1756 0
    endloop
  endfacet
  facet normal -0.844323 0.535835 0
    outer loop
      vertex -1.61803 87.1756 20
      vertex -1.75261 86.9635 0
      vertex -1.75261 86.9635 20
    endloop
  endfacet
  facet normal -0.982287 0.187382 0
    outer loop
      vertex -1.98423 86.2507 0
      vertex -1.93717 86.4974 20
      vertex -1.93717 86.4974 0
    endloop
  endfacet
  facet normal -0.982287 0.187382 0
    outer loop
      vertex -1.93717 86.4974 20
      vertex -1.98423 86.2507 0
      vertex -1.98423 86.2507 20
    endloop
  endfacet
  facet normal -0.587785 -0.809017 0
    outer loop
      vertex -1.27485 -1.54103 0
      vertex -1.07165 -1.68865 20
      vertex -1.27485 -1.54103 20
    endloop
  endfacet
  facet normal -0.587785 -0.809017 -0
    outer loop
      vertex -1.07165 -1.68865 20
      vertex -1.27485 -1.54103 0
      vertex -1.07165 -1.68865 0
    endloop
  endfacet
  facet normal -0.982287 -0.18738 0
    outer loop
      vertex -1.93717 -0.497379 0
      vertex -1.98423 -0.250666 20
      vertex -1.98423 -0.250666 0
    endloop
  endfacet
  facet normal -0.982287 -0.18738 0
    outer loop
      vertex -1.98423 -0.250666 20
      vertex -1.93717 -0.497379 0
      vertex -1.93717 -0.497379 20
    endloop
  endfacet
  facet normal -0.998027 -0.062792 0
    outer loop
      vertex -1.98423 -0.250666 0
      vertex -2 0 20
      vertex -2 0 0
    endloop
  endfacet
  facet normal -0.998027 -0.062792 0
    outer loop
      vertex -2 0 20
      vertex -1.98423 -0.250666 0
      vertex -1.98423 -0.250666 20
    endloop
  endfacet
  facet normal 0.684545 -0.72897 0
    outer loop
      vertex 55.2748 -1.54103 0
      vertex 55.4579 -1.36909 20
      vertex 55.2748 -1.54103 20
    endloop
  endfacet
  facet normal 0.684545 -0.72897 0
    outer loop
      vertex 55.4579 -1.36909 20
      vertex 55.2748 -1.54103 0
      vertex 55.4579 -1.36909 0
    endloop
  endfacet
  facet normal 0.587785 -0.809017 0
    outer loop
      vertex 55.0717 -1.68865 0
      vertex 55.2748 -1.54103 20
      vertex 55.0717 -1.68865 20
    endloop
  endfacet
  facet normal 0.587785 -0.809017 0
    outer loop
      vertex 55.2748 -1.54103 20
      vertex 55.0717 -1.68865 0
      vertex 55.2748 -1.54103 0
    endloop
  endfacet
  facet normal 0.368128 -0.929775 0
    outer loop
      vertex 54.618 -1.90211 0
      vertex 54.8516 -1.80965 20
      vertex 54.618 -1.90211 20
    endloop
  endfacet
  facet normal 0.368128 -0.929775 0
    outer loop
      vertex 54.8516 -1.80965 20
      vertex 54.618 -1.90211 0
      vertex 54.8516 -1.80965 0
    endloop
  endfacet
  facet normal 0.90483 -0.425773 0
    outer loop
      vertex 55.7526 -0.963507 20
      vertex 55.8596 -0.736249 0
      vertex 55.8596 -0.736249 20
    endloop
  endfacet
  facet normal 0.90483 -0.425773 0
    outer loop
      vertex 55.8596 -0.736249 0
      vertex 55.7526 -0.963507 20
      vertex 55.7526 -0.963507 0
    endloop
  endfacet
  facet normal 0.998027 -0.0627882 0
    outer loop
      vertex 55.9842 -0.250666 20
      vertex 56 0 0
      vertex 56 0 20
    endloop
  endfacet
  facet normal 0.998027 -0.0627882 0
    outer loop
      vertex 56 0 0
      vertex 55.9842 -0.250666 20
      vertex 55.9842 -0.250666 0
    endloop
  endfacet
  facet normal 0.587785 0.809017 -0
    outer loop
      vertex 55.2748 87.541 0
      vertex 55.0717 87.6887 20
      vertex 55.2748 87.541 20
    endloop
  endfacet
  facet normal 0.587785 0.809017 0
    outer loop
      vertex 55.0717 87.6887 20
      vertex 55.2748 87.541 0
      vertex 55.0717 87.6887 0
    endloop
  endfacet
  facet normal 0.684537 0.728978 -0
    outer loop
      vertex 55.4579 87.3691 0
      vertex 55.2748 87.541 20
      vertex 55.4579 87.3691 20
    endloop
  endfacet
  facet normal 0.684537 0.728978 0
    outer loop
      vertex 55.2748 87.541 20
      vertex 55.4579 87.3691 0
      vertex 55.2748 87.541 0
    endloop
  endfacet
  facet normal -0.248692 0.968583 0
    outer loop
      vertex -0.374763 87.9646 0
      vertex -0.618033 87.9021 20
      vertex -0.374763 87.9646 20
    endloop
  endfacet
  facet normal -0.248692 0.968583 0
    outer loop
      vertex -0.618033 87.9021 20
      vertex -0.374763 87.9646 0
      vertex -0.618033 87.9021 0
    endloop
  endfacet
  facet normal -0.125333 0.992115 0
    outer loop
      vertex -0.125581 87.9961 0
      vertex -0.374763 87.9646 20
      vertex -0.125581 87.9961 20
    endloop
  endfacet
  facet normal -0.125333 0.992115 0
    outer loop
      vertex -0.374763 87.9646 20
      vertex -0.125581 87.9961 0
      vertex -0.374763 87.9646 0
    endloop
  endfacet
  facet normal -0.481765 0.876301 0
    outer loop
      vertex -0.851558 87.8097 0
      vertex -1.07165 87.6887 20
      vertex -0.851558 87.8097 20
    endloop
  endfacet
  facet normal -0.481765 0.876301 0
    outer loop
      vertex -1.07165 87.6887 20
      vertex -0.851558 87.8097 0
      vertex -1.07165 87.6887 0
    endloop
  endfacet
  facet normal 0.481751 -0.876308 0
    outer loop
      vertex 54.8516 -1.80965 0
      vertex 55.0717 -1.68865 20
      vertex 54.8516 -1.80965 20
    endloop
  endfacet
  facet normal 0.481751 -0.876308 0
    outer loop
      vertex 55.0717 -1.68865 20
      vertex 54.8516 -1.80965 0
      vertex 55.0717 -1.68865 0
    endloop
  endfacet
  facet normal 0.248688 -0.968584 0
    outer loop
      vertex 54.3748 -1.96457 0
      vertex 54.618 -1.90211 20
      vertex 54.3748 -1.96457 20
    endloop
  endfacet
  facet normal 0.248688 -0.968584 0
    outer loop
      vertex 54.618 -1.90211 20
      vertex 54.3748 -1.96457 0
      vertex 54.618 -1.90211 0
    endloop
  endfacet
  facet normal -0.684537 0.728978 0
    outer loop
      vertex -1.27485 87.541 0
      vertex -1.45794 87.3691 20
      vertex -1.27485 87.541 20
    endloop
  endfacet
  facet normal -0.684537 0.728978 0
    outer loop
      vertex -1.45794 87.3691 20
      vertex -1.27485 87.541 0
      vertex -1.45794 87.3691 0
    endloop
  endfacet
  facet normal -0.587785 0.809017 0
    outer loop
      vertex -1.07165 87.6887 0
      vertex -1.27485 87.541 20
      vertex -1.07165 87.6887 20
    endloop
  endfacet
  facet normal -0.587785 0.809017 0
    outer loop
      vertex -1.27485 87.541 20
      vertex -1.07165 87.6887 0
      vertex -1.27485 87.541 0
    endloop
  endfacet
  facet normal -1 0 0
    outer loop
      vertex 54 10 2
      vertex 54 86 20
      vertex 54 86 2
    endloop
  endfacet
  facet normal -1 -0 0
    outer loop
      vertex 54 86 20
      vertex 54 10 2
      vertex 54 10 20
    endloop
  endfacet
  facet normal 0 0 1
    outer loop
      vertex 10 85 2
      vertex 44 85 2
      vertex 44 86 2
    endloop
  endfacet
  facet normal 0 0 1
    outer loop
      vertex 44 85 2
      vertex 1 76 2
      vertex 44 1 2
    endloop
  endfacet
  facet normal 0 0 1
    outer loop
      vertex 10 85 2
      vertex 44 86 2
      vertex 10 86 2
    endloop
  endfacet
  facet normal -0 0 1
    outer loop
      vertex 44 85 2
      vertex 53 76 2
      vertex 53 85 2
    endloop
  endfacet
  facet normal 0 0 1
    outer loop
      vertex 53 76 2
      vertex 44 85 2
      vertex 53 10 2
    endloop
  endfacet
  facet normal 0 0 1
    outer loop
      vertex 44 1 2
      vertex 53 10 2
      vertex 44 85 2
    endloop
  endfacet
  facet normal 0 0 1
    outer loop
      vertex 53 10 2
      vertex 44 1 2
      vertex 53 1 2
    endloop
  endfacet
  facet normal -0 0 1
    outer loop
      vertex 53 76 2
      vertex 54 10 2
      vertex 54 76 2
    endloop
  endfacet
  facet normal 0 0 1
    outer loop
      vertex 54 10 2
      vertex 53 76 2
      vertex 53 10 2
    endloop
  endfacet
  facet normal 0 0 1
    outer loop
      vertex 44 85 2
      vertex 10 85 2
      vertex 1 76 2
    endloop
  endfacet
  facet normal -0 0 1
    outer loop
      vertex 1 10 2
      vertex 44 1 2
      vertex 1 76 2
    endloop
  endfacet
  facet normal 0 0 1
    outer loop
      vertex 44 2.22045e-15 2
      vertex 10 0 2
      vertex 54 0 2
    endloop
  endfacet
  facet normal 0 0 1
    outer loop
      vertex 10 0 2
      vertex 44 2.22045e-15 2
      vertex 10 1 2
    endloop
  endfacet
  facet normal -0 0 1
    outer loop
      vertex 0 76 2
      vertex 1 10 2
      vertex 1 76 2
    endloop
  endfacet
  facet normal 0 0 1
    outer loop
      vertex 1 10 2
      vertex 0 76 2
      vertex 0 10 2
    endloop
  endfacet
  facet normal 0 0 1
    outer loop
      vertex 1 76 2
      vertex 10 85 2
      vertex 1 85 2
    endloop
  endfacet
  facet normal 0 -0 1
    outer loop
      vertex 10 1 2
      vertex 44 1 2
      vertex 1 10 2
    endloop
  endfacet
  facet normal 0 0 1
    outer loop
      vertex 44 1 2
      vertex 10 1 2
      vertex 44 2.22045e-15 2
    endloop
  endfacet
  facet normal 0 0 1
    outer loop
      vertex 10 1 2
      vertex 1 10 2
      vertex 1 1 2
    endloop
  endfacet
  facet normal 0 0 0
    outer loop
      vertex 54 10 2
      vertex 54 86 2
      vertex 54 76 2
    endloop
  endfacet
  facet normal 0 -0 0
    outer loop
      vertex 10 86 2
      vertex 44 86 2
      vertex 0 86 2
    endloop
  endfacet
  facet normal 0 -1 0
    outer loop
      vertex 0 86 20
      vertex 17 86 18
      vertex 17 86 20
    endloop
  endfacet
  facet normal 0 -1 0
    outer loop
      vertex 44 86 2
      vertex 17 86 18
      vertex 0 86 2
    endloop
  endfacet
  facet normal 0 -1 0
    outer loop
      vertex 0 86 2
      vertex 17 86 18
      vertex 0 86 20
    endloop
  endfacet
  facet normal 0 -1 0
    outer loop
      vertex 37 86 18
      vertex 44 86 20
      vertex 37 86 20
    endloop
  endfacet
  facet normal 0 -1 0
    outer loop
      vertex 17 86 18
      vertex 44 86 2
      vertex 37 86 18
    endloop
  endfacet
  facet normal 0 -1 0
    outer loop
      vertex 37 86 18
      vertex 44 86 2
      vertex 44 86 20
    endloop
  endfacet
  facet normal 1 -0 0
    outer loop
      vertex 17 86 20
      vertex 17 87.9961 18
      vertex 17 87.9961 20
    endloop
  endfacet
  facet normal 1 0 0
    outer loop
      vertex 17 87.9961 18
      vertex 17 86 20
      vertex 17 86 18
    endloop
  endfacet
  facet normal 0 0 1
    outer loop
      vertex 17 87.9961 20
      vertex 0 86 20
      vertex 17 86 20
    endloop
  endfacet
  facet normal -0 0 1
    outer loop
      vertex -0.374763 87.9646 20
      vertex 0 86 20
      vertex -0.125581 87.9961 20
    endloop
  endfacet
  facet normal -0 0 1
    outer loop
      vertex -0.125581 87.9961 20
      vertex 0 86 20
      vertex 17 87.9961 20
    endloop
  endfacet
  facet normal -0 0 1
    outer loop
      vertex -2.22045e-15 76 20
      vertex 0 10 20
      vertex 0 76 20
    endloop
  endfacet
  facet normal 0 0 1
    outer loop
      vertex -2 0 20
      vertex 0 10 20
      vertex -2.22045e-15 76 20
    endloop
  endfacet
  facet normal 0 0 1
    outer loop
      vertex 54 86 20
      vertex 56 86 20
      vertex 55.9842 86.2507 20
    endloop
  endfacet
  facet normal 0 0 1
    outer loop
      vertex 56 86 20
      vertex 54 10 20
      vertex 56 0 20
    endloop
  endfacet
  facet normal 0 0 1
    outer loop
      vertex 54 86 20
      vertex 55.9842 86.2507 20
      vertex 55.9372 86.4974 20
    endloop
  endfacet
  facet normal 0 0 1
    outer loop
      vertex 54 0 20
      vertex 56 0 20
      vertex 54 10 20
    endloop
  endfacet
  facet normal 0 0 1
    outer loop
      vertex 54 86 20
      vertex 55.9372 86.4974 20
      vertex 55.8596 86.7363 20
    endloop
  endfacet
  facet normal 0 0 1
    outer loop
      vertex 56 0 20
      vertex 54 0 20
      vertex 55.9842 -0.250666 20
    endloop
  endfacet
  facet normal 0 0 1
    outer loop
      vertex 54 86 20
      vertex 55.8596 86.7363 20
      vertex 55.7526 86.9635 20
    endloop
  endfacet
  facet normal 0 0 1
    outer loop
      vertex 55.9842 -0.250666 20
      vertex 54 0 20
      vertex 55.9372 -0.497379 20
    endloop
  endfacet
  facet normal 0 0 1
    outer loop
      vertex 54 86 20
      vertex 55.7526 86.9635 20
      vertex 55.618 87.1756 20
    endloop
  endfacet
  facet normal 0 0 1
    outer loop
      vertex 55.9372 -0.497379 20
      vertex 54 0 20
      vertex 55.8596 -0.736249 20
    endloop
  endfacet
  facet normal 0 0 1
    outer loop
      vertex 54 86 20
      vertex 55.618 87.1756 20
      vertex 55.4579 87.3691 20
    endloop
  endfacet
  facet normal 0 0 1
    outer loop
      vertex 55.8596 -0.736249 20
      vertex 54 0 20
      vertex 55.7526 -0.963507 20
    endloop
  endfacet
  facet normal 0 0 1
    outer loop
      vertex 54 86 20
      vertex 55.4579 87.3691 20
      vertex 55.2748 87.541 20
    endloop
  endfacet
  facet normal 0 0 1
    outer loop
      vertex 55.7526 -0.963507 20
      vertex 54 0 20
      vertex 55.618 -1.17557 20
    endloop
  endfacet
  facet normal 0 0 1
    outer loop
      vertex 54 86 20
      vertex 55.2748 87.541 20
      vertex 55.0717 87.6887 20
    endloop
  endfacet
  facet normal 0 0 1
    outer loop
      vertex 55.618 -1.17557 20
      vertex 54 0 20
      vertex 55.4579 -1.36909 20
    endloop
  endfacet
  facet normal 0 0 1
    outer loop
      vertex 54 86 20
      vertex 55.0717 87.6887 20
      vertex 54.8516 87.8097 20
    endloop
  endfacet
  facet normal 0 0 1
    outer loop
      vertex 55.4579 -1.36909 20
      vertex 54 0 20
      vertex 55.2748 -1.54103 20
    endloop
  endfacet
  facet normal 0 0 1
    outer loop
      vertex 54 86 20
      vertex 54.8516 87.8097 20
      vertex 54.618 87.9021 20
    endloop
  endfacet
  facet normal 0 0 1
    outer loop
      vertex 55.2748 -1.54103 20
      vertex 54 0 20
      vertex 55.0717 -1.68865 20
    endloop
  endfacet
  facet normal 0 0 1
    outer loop
      vertex 54 86 20
      vertex 54.618 87.9021 20
      vertex 54.3748 87.9646 20
    endloop
  endfacet
  facet normal 0 0 1
    outer loop
      vertex 55.0717 -1.68865 20
      vertex 54 0 20
      vertex 54.8516 -1.80965 20
    endloop
  endfacet
  facet normal 0 0 1
    outer loop
      vertex 54 86 20
      vertex 54.3748 87.9646 20
      vertex 54.1256 87.9961 20
    endloop
  endfacet
  facet normal 0 0 1
    outer loop
      vertex 54.8516 -1.80965 20
      vertex 54 0 20
      vertex 54.618 -1.90211 20
    endloop
  endfacet
  facet normal 0 0 1
    outer loop
      vertex 56 86 20
      vertex 54 86 20
      vertex 54 10 20
    endloop
  endfacet
  facet normal 0 0 1
    outer loop
      vertex 54.1256 87.9961 20
      vertex 44 86 20
      vertex 54 86 20
    endloop
  endfacet
  facet normal -0 0 1
    outer loop
      vertex 37 87.9961 20
      vertex 44 86 20
      vertex 54.1256 87.9961 20
    endloop
  endfacet
  facet normal 0 0 1
    outer loop
      vertex 44 86 20
      vertex 37 87.9961 20
      vertex 37 86 20
    endloop
  endfacet
  facet normal 0 0 1
    outer loop
      vertex 54.618 -1.90211 20
      vertex 54 0 20
      vertex 54.3748 -1.96457 20
    endloop
  endfacet
  facet normal 0 0 1
    outer loop
      vertex 54.3748 -1.96457 20
      vertex 54 0 20
      vertex 54.1256 -1.99605 20
    endloop
  endfacet
  facet normal -0 0 1
    outer loop
      vertex 10 0 20
      vertex 54.1256 -1.99605 20
      vertex 54 0 20
    endloop
  endfacet
  facet normal 0 0 1
    outer loop
      vertex -0.125581 -1.99605 20
      vertex 10 0 20
      vertex 0 0 20
    endloop
  endfacet
  facet normal 0 0 1
    outer loop
      vertex 0 86 20
      vertex -2 86 20
      vertex -2.22045e-15 76 20
    endloop
  endfacet
  facet normal 0 0 1
    outer loop
      vertex 10 0 20
      vertex -0.125581 -1.99605 20
      vertex 54.1256 -1.99605 20
    endloop
  endfacet
  facet normal 0 0 1
    outer loop
      vertex -2 0 20
      vertex -2.22045e-15 76 20
      vertex -2 86 20
    endloop
  endfacet
  facet normal -0 0 1
    outer loop
      vertex -0.618033 87.9021 20
      vertex 0 86 20
      vertex -0.374763 87.9646 20
    endloop
  endfacet
  facet normal 0 0 1
    outer loop
      vertex 0 10 20
      vertex -2 0 20
      vertex 0 0 20
    endloop
  endfacet
  facet normal -0 0 1
    outer loop
      vertex -0.851558 87.8097 20
      vertex 0 86 20
      vertex -0.618033 87.9021 20
    endloop
  endfacet
  facet normal 0 -0 1
    outer loop
      vertex -1.98423 -0.250666 20
      vertex 0 0 20
      vertex -2 0 20
    endloop
  endfacet
  facet normal -0 0 1
    outer loop
      vertex -1.07165 87.6887 20
      vertex 0 86 20
      vertex -0.851558 87.8097 20
    endloop
  endfacet
  facet normal 0 0 1
    outer loop
      vertex 0 0 20
      vertex -0.374763 -1.96457 20
      vertex -0.125581 -1.99605 20
    endloop
  endfacet
  facet normal -0 0 1
    outer loop
      vertex -1.27485 87.541 20
      vertex 0 86 20
      vertex -1.07165 87.6887 20
    endloop
  endfacet
  facet normal 0 0 1
    outer loop
      vertex 0 0 20
      vertex -0.618033 -1.90211 20
      vertex -0.374763 -1.96457 20
    endloop
  endfacet
  facet normal -0 0 1
    outer loop
      vertex -1.45794 87.3691 20
      vertex 0 86 20
      vertex -1.27485 87.541 20
    endloop
  endfacet
  facet normal 0 0 1
    outer loop
      vertex 0 0 20
      vertex -0.851558 -1.80965 20
      vertex -0.618033 -1.90211 20
    endloop
  endfacet
  facet normal -0 0 1
    outer loop
      vertex -1.61803 87.1756 20
      vertex 0 86 20
      vertex -1.45794 87.3691 20
    endloop
  endfacet
  facet normal 0 0 1
    outer loop
      vertex 0 0 20
      vertex -1.07165 -1.68865 20
      vertex -0.851558 -1.80965 20
    endloop
  endfacet
  facet normal -0 0 1
    outer loop
      vertex -1.75261 86.9635 20
      vertex 0 86 20
      vertex -1.61803 87.1756 20
    endloop
  endfacet
  facet normal 0 0 1
    outer loop
      vertex 0 0 20
      vertex -1.27485 -1.54103 20
      vertex -1.07165 -1.68865 20
    endloop
  endfacet
  facet normal -0 0 1
    outer loop
      vertex -1.85955 86.7363 20
      vertex 0 86 20
      vertex -1.75261 86.9635 20
    endloop
  endfacet
  facet normal 0 0 1
    outer loop
      vertex 0 0 20
      vertex -1.45794 -1.36909 20
      vertex -1.27485 -1.54103 20
    endloop
  endfacet
  facet normal -0 0 1
    outer loop
      vertex -1.93717 86.4974 20
      vertex 0 86 20
      vertex -1.85955 86.7363 20
    endloop
  endfacet
  facet normal 0 0 1
    outer loop
      vertex 0 0 20
      vertex -1.61803 -1.17557 20
      vertex -1.45794 -1.36909 20
    endloop
  endfacet
  facet normal -0 0 1
    outer loop
      vertex -1.98423 86.2507 20
      vertex 0 86 20
      vertex -1.93717 86.4974 20
    endloop
  endfacet
  facet normal 0 0 1
    outer loop
      vertex 0 0 20
      vertex -1.75261 -0.963507 20
      vertex -1.61803 -1.17557 20
    endloop
  endfacet
  facet normal 0 0 1
    outer loop
      vertex 0 86 20
      vertex -1.98423 86.2507 20
      vertex -2 86 20
    endloop
  endfacet
  facet normal 0 0 1
    outer loop
      vertex 0 0 20
      vertex -1.85955 -0.736249 20
      vertex -1.75261 -0.963507 20
    endloop
  endfacet
  facet normal 0 0 1
    outer loop
      vertex 0 0 20
      vertex -1.93717 -0.497379 20
      vertex -1.85955 -0.736249 20
    endloop
  endfacet
  facet normal 0 0 1
    outer loop
      vertex 0 0 20
      vertex -1.98423 -0.250666 20
      vertex -1.93717 -0.497379 20
    endloop
  endfacet
  facet normal -1 0 0
    outer loop
      vertex 37 86 18
      vertex 37 87.9961 20
      vertex 37 87.9961 18
    endloop
  endfacet
  facet normal -1 -0 0
    outer loop
      vertex 37 87.9961 20
      vertex 37 86 18
      vertex 37 86 20
    endloop
  endfacet
  facet normal -0 0 1
    outer loop
      vertex 17 87.9961 18
      vertex 37 86 18
      vertex 37 87.9961 18
    endloop
  endfacet
  facet normal 0 0 1
    outer loop
      vertex 37 86 18
      vertex 17 87.9961 18
      vertex 17 86 18
    endloop
  endfacet
endsolid OpenSCAD_Model
