solid OpenSCAD_Model
  facet normal 1 -0 0
    outer loop
      vertex 10 10 41
      vertex 10 12 40
      vertex 10 12 41
    endloop
  endfacet
  facet normal 1 0 0
    outer loop
      vertex 10 12 40
      vertex 10 10 41
      vertex 10 10 40
    endloop
  endfacet
  facet normal -1 0 0
    outer loop
      vertex 44 10 40
      vertex 44 12 41
      vertex 44 12 40
    endloop
  endfacet
  facet normal -1 -0 0
    outer loop
      vertex 44 12 41
      vertex 44 10 40
      vertex 44 10 41
    endloop
  endfacet
  facet normal 0 0 -1
    outer loop
      vertex 10 42 40
      vertex 44 45 40
      vertex 44 42 40
    endloop
  endfacet
  facet normal -0 0 -1
    outer loop
      vertex 44 45 40
      vertex 10 42 40
      vertex 10 45 40
    endloop
  endfacet
  facet normal 0 0 -1
    outer loop
      vertex 10 37 40
      vertex 44 40 40
      vertex 44 37 40
    endloop
  endfacet
  facet normal -0 0 -1
    outer loop
      vertex 44 40 40
      vertex 10 37 40
      vertex 10 40 40
    endloop
  endfacet
  facet normal 0 0 -1
    outer loop
      vertex 10 32 40
      vertex 44 35 40
      vertex 44 32 40
    endloop
  endfacet
  facet normal -0 0 -1
    outer loop
      vertex 44 35 40
      vertex 10 32 40
      vertex 10 35 40
    endloop
  endfacet
  facet normal 0 0 -1
    outer loop
      vertex 10 27 40
      vertex 44 30 40
      vertex 44 27 40
    endloop
  endfacet
  facet normal -0 0 -1
    outer loop
      vertex 44 30 40
      vertex 10 27 40
      vertex 10 30 40
    endloop
  endfacet
  facet normal 0 0 -1
    outer loop
      vertex 10 22 40
      vertex 44 25 40
      vertex 44 22 40
    endloop
  endfacet
  facet normal -0 0 -1
    outer loop
      vertex 44 25 40
      vertex 10 22 40
      vertex 10 25 40
    endloop
  endfacet
  facet normal 0 0 -1
    outer loop
      vertex 10 17 40
      vertex 44 20 40
      vertex 44 17 40
    endloop
  endfacet
  facet normal -0 0 -1
    outer loop
      vertex 44 20 40
      vertex 10 17 40
      vertex 10 20 40
    endloop
  endfacet
  facet normal 0 0 -1
    outer loop
      vertex 10 12 40
      vertex 44 15 40
      vertex 44 12 40
    endloop
  endfacet
  facet normal -0 0 -1
    outer loop
      vertex 44 15 40
      vertex 10 12 40
      vertex 10 15 40
    endloop
  endfacet
  facet normal 0 0 -1
    outer loop
      vertex 44 12 40
      vertex 54 0 40
      vertex 44 10 40
    endloop
  endfacet
  facet normal 0 0 -1
    outer loop
      vertex 54 0 40
      vertex 10 10 40
      vertex 44 10 40
    endloop
  endfacet
  facet normal 0 0 -1
    outer loop
      vertex 0 0 40
      vertex 10 12 40
      vertex 10 10 40
    endloop
  endfacet
  facet normal -0 0 -1
    outer loop
      vertex 10 12 40
      vertex 0 0 40
      vertex 10 15 40
    endloop
  endfacet
  facet normal -0 0 -1
    outer loop
      vertex 10 15 40
      vertex 0 0 40
      vertex 10 17 40
    endloop
  endfacet
  facet normal -0 0 -1
    outer loop
      vertex 10 17 40
      vertex 0 0 40
      vertex 10 20 40
    endloop
  endfacet
  facet normal -0 0 -1
    outer loop
      vertex 10 20 40
      vertex 0 0 40
      vertex 10 22 40
    endloop
  endfacet
  facet normal -0 0 -1
    outer loop
      vertex 10 22 40
      vertex 0 0 40
      vertex 10 25 40
    endloop
  endfacet
  facet normal -0 0 -1
    outer loop
      vertex 10 25 40
      vertex 0 0 40
      vertex 10 27 40
    endloop
  endfacet
  facet normal -0 0 -1
    outer loop
      vertex 10 27 40
      vertex 0 0 40
      vertex 10 30 40
    endloop
  endfacet
  facet normal -0 0 -1
    outer loop
      vertex 10 30 40
      vertex 0 0 40
      vertex 10 32 40
    endloop
  endfacet
  facet normal -0 0 -1
    outer loop
      vertex 10 32 40
      vertex 0 0 40
      vertex 10 35 40
    endloop
  endfacet
  facet normal -0 0 -1
    outer loop
      vertex 10 35 40
      vertex 0 0 40
      vertex 10 37 40
    endloop
  endfacet
  facet normal -0 0 -1
    outer loop
      vertex 10 37 40
      vertex 0 0 40
      vertex 10 40 40
    endloop
  endfacet
  facet normal -0 0 -1
    outer loop
      vertex 10 40 40
      vertex 0 0 40
      vertex 10 42 40
    endloop
  endfacet
  facet normal -0 0 -1
    outer loop
      vertex 10 42 40
      vertex 0 0 40
      vertex 10 45 40
    endloop
  endfacet
  facet normal -0 0 -1
    outer loop
      vertex 10 45 40
      vertex 0 0 40
      vertex 10 47 40
    endloop
  endfacet
  facet normal 0 0 -1
    outer loop
      vertex 0 0 40
      vertex 10 10 40
      vertex 54 0 40
    endloop
  endfacet
  facet normal 0 0 -1
    outer loop
      vertex 44 15 40
      vertex 54 0 40
      vertex 44 12 40
    endloop
  endfacet
  facet normal 0 0 -1
    outer loop
      vertex 44 17 40
      vertex 54 0 40
      vertex 44 15 40
    endloop
  endfacet
  facet normal 0 0 -1
    outer loop
      vertex 44 20 40
      vertex 54 0 40
      vertex 44 17 40
    endloop
  endfacet
  facet normal 0 0 -1
    outer loop
      vertex 44 22 40
      vertex 54 0 40
      vertex 44 20 40
    endloop
  endfacet
  facet normal 0 0 -1
    outer loop
      vertex 44 25 40
      vertex 54 0 40
      vertex 44 22 40
    endloop
  endfacet
  facet normal 0 0 -1
    outer loop
      vertex 44 27 40
      vertex 54 0 40
      vertex 44 25 40
    endloop
  endfacet
  facet normal 0 0 -1
    outer loop
      vertex 44 30 40
      vertex 54 0 40
      vertex 44 27 40
    endloop
  endfacet
  facet normal 0 0 -1
    outer loop
      vertex 44 32 40
      vertex 54 0 40
      vertex 44 30 40
    endloop
  endfacet
  facet normal 0 0 -1
    outer loop
      vertex 44 35 40
      vertex 54 0 40
      vertex 44 32 40
    endloop
  endfacet
  facet normal 0 0 -1
    outer loop
      vertex 44 37 40
      vertex 54 0 40
      vertex 44 35 40
    endloop
  endfacet
  facet normal 0 0 -1
    outer loop
      vertex 44 40 40
      vertex 54 0 40
      vertex 44 37 40
    endloop
  endfacet
  facet normal 0 0 -1
    outer loop
      vertex 44 42 40
      vertex 54 0 40
      vertex 44 40 40
    endloop
  endfacet
  facet normal 0 0 -1
    outer loop
      vertex 44 45 40
      vertex 54 0 40
      vertex 44 42 40
    endloop
  endfacet
  facet normal 0 0 -1
    outer loop
      vertex 54 0 40
      vertex 44 45 40
      vertex 54 90 40
    endloop
  endfacet
  facet normal 0 0 -1
    outer loop
      vertex 44 47 40
      vertex 54 90 40
      vertex 44 45 40
    endloop
  endfacet
  facet normal 0 0 -1
    outer loop
      vertex 10 47 40
      vertex 54 90 40
      vertex 44 47 40
    endloop
  endfacet
  facet normal 0 0 -1
    outer loop
      vertex 10 47 40
      vertex 0 90 40
      vertex 54 90 40
    endloop
  endfacet
  facet normal 0 0 -1
    outer loop
      vertex 0 90 40
      vertex 10 47 40
      vertex 0 0 40
    endloop
  endfacet
  facet normal 0 1 -0
    outer loop
      vertex 44 10 40
      vertex 10 10 41
      vertex 44 10 41
    endloop
  endfacet
  facet normal 0 1 0
    outer loop
      vertex 10 10 41
      vertex 44 10 40
      vertex 10 10 40
    endloop
  endfacet
  facet normal 0 -1 0
    outer loop
      vertex 10 12 40
      vertex 44 12 41
      vertex 10 12 41
    endloop
  endfacet
  facet normal 0 -1 -0
    outer loop
      vertex 44 12 41
      vertex 10 12 40
      vertex 44 12 40
    endloop
  endfacet
  facet normal 1 -0 0
    outer loop
      vertex 10 15 41
      vertex 10 17 40
      vertex 10 17 41
    endloop
  endfacet
  facet normal 1 0 0
    outer loop
      vertex 10 17 40
      vertex 10 15 41
      vertex 10 15 40
    endloop
  endfacet
  facet normal -1 0 0
    outer loop
      vertex 44 15 40
      vertex 44 17 41
      vertex 44 17 40
    endloop
  endfacet
  facet normal -1 -0 0
    outer loop
      vertex 44 17 41
      vertex 44 15 40
      vertex 44 15 41
    endloop
  endfacet
  facet normal 0 -1 0
    outer loop
      vertex 10 17 40
      vertex 44 17 41
      vertex 10 17 41
    endloop
  endfacet
  facet normal 0 -1 -0
    outer loop
      vertex 44 17 41
      vertex 10 17 40
      vertex 44 17 40
    endloop
  endfacet
  facet normal 0 1 -0
    outer loop
      vertex 44 15 40
      vertex 10 15 41
      vertex 44 15 41
    endloop
  endfacet
  facet normal 0 1 0
    outer loop
      vertex 10 15 41
      vertex 44 15 40
      vertex 10 15 40
    endloop
  endfacet
  facet normal 1 -0 0
    outer loop
      vertex 10 20 41
      vertex 10 22 40
      vertex 10 22 41
    endloop
  endfacet
  facet normal 1 0 0
    outer loop
      vertex 10 22 40
      vertex 10 20 41
      vertex 10 20 40
    endloop
  endfacet
  facet normal -1 0 0
    outer loop
      vertex 44 20 40
      vertex 44 22 41
      vertex 44 22 40
    endloop
  endfacet
  facet normal -1 -0 0
    outer loop
      vertex 44 22 41
      vertex 44 20 40
      vertex 44 20 41
    endloop
  endfacet
  facet normal 0 1 -0
    outer loop
      vertex 44 20 40
      vertex 10 20 41
      vertex 44 20 41
    endloop
  endfacet
  facet normal 0 1 0
    outer loop
      vertex 10 20 41
      vertex 44 20 40
      vertex 10 20 40
    endloop
  endfacet
  facet normal 0 -1 0
    outer loop
      vertex 10 22 40
      vertex 44 22 41
      vertex 10 22 41
    endloop
  endfacet
  facet normal 0 -1 -0
    outer loop
      vertex 44 22 41
      vertex 10 22 40
      vertex 44 22 40
    endloop
  endfacet
  facet normal 1 -0 0
    outer loop
      vertex 10 25 41
      vertex 10 27 40
      vertex 10 27 41
    endloop
  endfacet
  facet normal 1 0 0
    outer loop
      vertex 10 27 40
      vertex 10 25 41
      vertex 10 25 40
    endloop
  endfacet
  facet normal -1 0 0
    outer loop
      vertex 44 25 40
      vertex 44 27 41
      vertex 44 27 40
    endloop
  endfacet
  facet normal -1 -0 0
    outer loop
      vertex 44 27 41
      vertex 44 25 40
      vertex 44 25 41
    endloop
  endfacet
  facet normal 0 -1 0
    outer loop
      vertex 10 27 40
      vertex 44 27 41
      vertex 10 27 41
    endloop
  endfacet
  facet normal 0 -1 -0
    outer loop
      vertex 44 27 41
      vertex 10 27 40
      vertex 44 27 40
    endloop
  endfacet
  facet normal 0 1 -0
    outer loop
      vertex 44 25 40
      vertex 10 25 41
      vertex 44 25 41
    endloop
  endfacet
  facet normal 0 1 0
    outer loop
      vertex 10 25 41
      vertex 44 25 40
      vertex 10 25 40
    endloop
  endfacet
  facet normal 1 -0 0
    outer loop
      vertex 10 30 41
      vertex 10 32 40
      vertex 10 32 41
    endloop
  endfacet
  facet normal 1 0 0
    outer loop
      vertex 10 32 40
      vertex 10 30 41
      vertex 10 30 40
    endloop
  endfacet
  facet normal -1 0 0
    outer loop
      vertex 44 30 40
      vertex 44 32 41
      vertex 44 32 40
    endloop
  endfacet
  facet normal -1 -0 0
    outer loop
      vertex 44 32 41
      vertex 44 30 40
      vertex 44 30 41
    endloop
  endfacet
  facet normal 0 -1 0
    outer loop
      vertex 10 32 40
      vertex 44 32 41
      vertex 10 32 41
    endloop
  endfacet
  facet normal 0 -1 -0
    outer loop
      vertex 44 32 41
      vertex 10 32 40
      vertex 44 32 40
    endloop
  endfacet
  facet normal 0 1 -0
    outer loop
      vertex 44 30 40
      vertex 10 30 41
      vertex 44 30 41
    endloop
  endfacet
  facet normal 0 1 0
    outer loop
      vertex 10 30 41
      vertex 44 30 40
      vertex 10 30 40
    endloop
  endfacet
  facet normal 1 -0 0
    outer loop
      vertex 10 35 41
      vertex 10 37 40
      vertex 10 37 41
    endloop
  endfacet
  facet normal 1 0 0
    outer loop
      vertex 10 37 40
      vertex 10 35 41
      vertex 10 35 40
    endloop
  endfacet
  facet normal -1 0 0
    outer loop
      vertex 44 35 40
      vertex 44 37 41
      vertex 44 37 40
    endloop
  endfacet
  facet normal -1 -0 0
    outer loop
      vertex 44 37 41
      vertex 44 35 40
      vertex 44 35 41
    endloop
  endfacet
  facet normal 0 -1 0
    outer loop
      vertex 10 37 40
      vertex 44 37 41
      vertex 10 37 41
    endloop
  endfacet
  facet normal 0 -1 -0
    outer loop
      vertex 44 37 41
      vertex 10 37 40
      vertex 44 37 40
    endloop
  endfacet
  facet normal 0 1 -0
    outer loop
      vertex 44 35 40
      vertex 10 35 41
      vertex 44 35 41
    endloop
  endfacet
  facet normal 0 1 0
    outer loop
      vertex 10 35 41
      vertex 44 35 40
      vertex 10 35 40
    endloop
  endfacet
  facet normal 1 -0 0
    outer loop
      vertex 10 40 41
      vertex 10 42 40
      vertex 10 42 41
    endloop
  endfacet
  facet normal 1 0 0
    outer loop
      vertex 10 42 40
      vertex 10 40 41
      vertex 10 40 40
    endloop
  endfacet
  facet normal -1 0 0
    outer loop
      vertex 44 40 40
      vertex 44 42 41
      vertex 44 42 40
    endloop
  endfacet
  facet normal -1 -0 0
    outer loop
      vertex 44 42 41
      vertex 44 40 40
      vertex 44 40 41
    endloop
  endfacet
  facet normal 0 -1 0
    outer loop
      vertex 10 42 40
      vertex 44 42 41
      vertex 10 42 41
    endloop
  endfacet
  facet normal 0 -1 -0
    outer loop
      vertex 44 42 41
      vertex 10 42 40
      vertex 44 42 40
    endloop
  endfacet
  facet normal 0 1 -0
    outer loop
      vertex 44 40 40
      vertex 10 40 41
      vertex 44 40 41
    endloop
  endfacet
  facet normal 0 1 0
    outer loop
      vertex 10 40 41
      vertex 44 40 40
      vertex 10 40 40
    endloop
  endfacet
  facet normal 1 -0 0
    outer loop
      vertex 10 45 41
      vertex 10 47 40
      vertex 10 47 41
    endloop
  endfacet
  facet normal 1 0 0
    outer loop
      vertex 10 47 40
      vertex 10 45 41
      vertex 10 45 40
    endloop
  endfacet
  facet normal -1 0 0
    outer loop
      vertex 44 45 40
      vertex 44 47 41
      vertex 44 47 40
    endloop
  endfacet
  facet normal -1 -0 0
    outer loop
      vertex 44 47 41
      vertex 44 45 40
      vertex 44 45 41
    endloop
  endfacet
  facet normal 0 1 -0
    outer loop
      vertex 44 45 40
      vertex 10 45 41
      vertex 44 45 41
    endloop
  endfacet
  facet normal 0 1 0
    outer loop
      vertex 10 45 41
      vertex 44 45 40
      vertex 10 45 40
    endloop
  endfacet
  facet normal 0 -1 0
    outer loop
      vertex 10 47 40
      vertex 44 47 41
      vertex 10 47 41
    endloop
  endfacet
  facet normal 0 -1 -0
    outer loop
      vertex 44 47 41
      vertex 10 47 40
      vertex 44 47 40
    endloop
  endfacet
  facet normal -0 0 1
    outer loop
      vertex 10 15 41
      vertex 44 12 41
      vertex 44 15 41
    endloop
  endfacet
  facet normal 0 0 1
    outer loop
      vertex 44 12 41
      vertex 10 15 41
      vertex 10 12 41
    endloop
  endfacet
  facet normal -0 0 1
    outer loop
      vertex 10 20 41
      vertex 44 17 41
      vertex 44 20 41
    endloop
  endfacet
  facet normal 0 0 1
    outer loop
      vertex 44 17 41
      vertex 10 20 41
      vertex 10 17 41
    endloop
  endfacet
  facet normal -0 0 1
    outer loop
      vertex 10 25 41
      vertex 44 22 41
      vertex 44 25 41
    endloop
  endfacet
  facet normal 0 0 1
    outer loop
      vertex 44 22 41
      vertex 10 25 41
      vertex 10 22 41
    endloop
  endfacet
  facet normal -0 0 1
    outer loop
      vertex 10 30 41
      vertex 44 27 41
      vertex 44 30 41
    endloop
  endfacet
  facet normal 0 0 1
    outer loop
      vertex 44 27 41
      vertex 10 30 41
      vertex 10 27 41
    endloop
  endfacet
  facet normal -0 0 1
    outer loop
      vertex 10 35 41
      vertex 44 32 41
      vertex 44 35 41
    endloop
  endfacet
  facet normal 0 0 1
    outer loop
      vertex 44 32 41
      vertex 10 35 41
      vertex 10 32 41
    endloop
  endfacet
  facet normal -0 0 1
    outer loop
      vertex 10 40 41
      vertex 44 37 41
      vertex 44 40 41
    endloop
  endfacet
  facet normal 0 0 1
    outer loop
      vertex 44 37 41
      vertex 10 40 41
      vertex 10 37 41
    endloop
  endfacet
  facet normal -0 0 1
    outer loop
      vertex 10 45 41
      vertex 44 42 41
      vertex 44 45 41
    endloop
  endfacet
  facet normal 0 0 1
    outer loop
      vertex 44 42 41
      vertex 10 45 41
      vertex 10 42 41
    endloop
  endfacet
  facet normal 0 0 1
    outer loop
      vertex 54.1256 91.9961 41
      vertex 56 90 41
      vertex 55.9842 90.2507 41
    endloop
  endfacet
  facet normal 0 0 1
    outer loop
      vertex 56 90 41
      vertex 44 45 41
      vertex 56 0 41
    endloop
  endfacet
  facet normal 0 0 1
    outer loop
      vertex 54.1256 91.9961 41
      vertex 55.9842 90.2507 41
      vertex 55.9372 90.4974 41
    endloop
  endfacet
  facet normal -0 0 1
    outer loop
      vertex 44 42 41
      vertex 56 0 41
      vertex 44 45 41
    endloop
  endfacet
  facet normal 0 0 1
    outer loop
      vertex 54.1256 91.9961 41
      vertex 55.9372 90.4974 41
      vertex 55.8596 90.7363 41
    endloop
  endfacet
  facet normal -0 0 1
    outer loop
      vertex 44 40 41
      vertex 56 0 41
      vertex 44 42 41
    endloop
  endfacet
  facet normal 0 0 1
    outer loop
      vertex 54.1256 91.9961 41
      vertex 55.8596 90.7363 41
      vertex 55.7526 90.9635 41
    endloop
  endfacet
  facet normal -0 0 1
    outer loop
      vertex 44 37 41
      vertex 56 0 41
      vertex 44 40 41
    endloop
  endfacet
  facet normal 0 0 1
    outer loop
      vertex 54.1256 91.9961 41
      vertex 55.7526 90.9635 41
      vertex 55.618 91.1756 41
    endloop
  endfacet
  facet normal -0 0 1
    outer loop
      vertex 44 35 41
      vertex 56 0 41
      vertex 44 37 41
    endloop
  endfacet
  facet normal 0 0 1
    outer loop
      vertex 54.1256 91.9961 41
      vertex 55.618 91.1756 41
      vertex 55.4579 91.3691 41
    endloop
  endfacet
  facet normal -0 0 1
    outer loop
      vertex 44 32 41
      vertex 56 0 41
      vertex 44 35 41
    endloop
  endfacet
  facet normal 0 0 1
    outer loop
      vertex 54.1256 91.9961 41
      vertex 55.4579 91.3691 41
      vertex 55.2748 91.541 41
    endloop
  endfacet
  facet normal -0 0 1
    outer loop
      vertex 44 30 41
      vertex 56 0 41
      vertex 44 32 41
    endloop
  endfacet
  facet normal 0 0 1
    outer loop
      vertex 54.1256 91.9961 41
      vertex 55.2748 91.541 41
      vertex 55.0717 91.6887 41
    endloop
  endfacet
  facet normal -0 0 1
    outer loop
      vertex 44 27 41
      vertex 56 0 41
      vertex 44 30 41
    endloop
  endfacet
  facet normal 0 0 1
    outer loop
      vertex 54.1256 91.9961 41
      vertex 55.0717 91.6887 41
      vertex 54.8516 91.8097 41
    endloop
  endfacet
  facet normal 0 0 1
    outer loop
      vertex 56 90 41
      vertex 44 47 41
      vertex 44 45 41
    endloop
  endfacet
  facet normal 0 0 1
    outer loop
      vertex 54.1256 91.9961 41
      vertex 54.8516 91.8097 41
      vertex 54.618 91.9021 41
    endloop
  endfacet
  facet normal -0 0 1
    outer loop
      vertex 44 25 41
      vertex 56 0 41
      vertex 44 27 41
    endloop
  endfacet
  facet normal 0 0 1
    outer loop
      vertex 54.1256 91.9961 41
      vertex 54.618 91.9021 41
      vertex 54.3748 91.9646 41
    endloop
  endfacet
  facet normal -0 0 1
    outer loop
      vertex 44 22 41
      vertex 56 0 41
      vertex 44 25 41
    endloop
  endfacet
  facet normal 0 0 1
    outer loop
      vertex 56 90 41
      vertex 54.1256 91.9961 41
      vertex 44 47 41
    endloop
  endfacet
  facet normal -0 0 1
    outer loop
      vertex 44 20 41
      vertex 56 0 41
      vertex 44 22 41
    endloop
  endfacet
  facet normal -0 0 1
    outer loop
      vertex 44 17 41
      vertex 56 0 41
      vertex 44 20 41
    endloop
  endfacet
  facet normal 0 0 1
    outer loop
      vertex 54.1256 91.9961 41
      vertex 10 47 41
      vertex 44 47 41
    endloop
  endfacet
  facet normal 0 0 1
    outer loop
      vertex -2 90 41
      vertex 10 45 41
      vertex 10 47 41
    endloop
  endfacet
  facet normal 0 0 1
    outer loop
      vertex 10 45 41
      vertex -2 0 41
      vertex 10 42 41
    endloop
  endfacet
  facet normal 0 0 1
    outer loop
      vertex 10 42 41
      vertex -2 0 41
      vertex 10 40 41
    endloop
  endfacet
  facet normal 0 0 1
    outer loop
      vertex 10 40 41
      vertex -2 0 41
      vertex 10 37 41
    endloop
  endfacet
  facet normal 0 0 1
    outer loop
      vertex 10 37 41
      vertex -2 0 41
      vertex 10 35 41
    endloop
  endfacet
  facet normal 0 0 1
    outer loop
      vertex 10 35 41
      vertex -2 0 41
      vertex 10 32 41
    endloop
  endfacet
  facet normal 0 0 1
    outer loop
      vertex 10 32 41
      vertex -2 0 41
      vertex 10 30 41
    endloop
  endfacet
  facet normal 0 0 1
    outer loop
      vertex 10 30 41
      vertex -2 0 41
      vertex 10 27 41
    endloop
  endfacet
  facet normal 0 0 1
    outer loop
      vertex 10 27 41
      vertex -2 0 41
      vertex 10 25 41
    endloop
  endfacet
  facet normal 0 0 1
    outer loop
      vertex 10 25 41
      vertex -2 0 41
      vertex 10 22 41
    endloop
  endfacet
  facet normal 0 0 1
    outer loop
      vertex 10 22 41
      vertex -2 0 41
      vertex 10 20 41
    endloop
  endfacet
  facet normal 0 0 1
    outer loop
      vertex 10 20 41
      vertex -2 0 41
      vertex 10 17 41
    endloop
  endfacet
  facet normal 0 0 1
    outer loop
      vertex 10 17 41
      vertex -2 0 41
      vertex 10 15 41
    endloop
  endfacet
  facet normal 0 0 1
    outer loop
      vertex 10 15 41
      vertex -2 0 41
      vertex 10 12 41
    endloop
  endfacet
  facet normal -0 0 1
    outer loop
      vertex -2 90 41
      vertex 10 47 41
      vertex -0.125581 91.9961 41
    endloop
  endfacet
  facet normal -0 0 1
    outer loop
      vertex -0.125581 91.9961 41
      vertex 10 47 41
      vertex 54.1256 91.9961 41
    endloop
  endfacet
  facet normal -0 0 1
    outer loop
      vertex 44 15 41
      vertex 56 0 41
      vertex 44 17 41
    endloop
  endfacet
  facet normal -0 0 1
    outer loop
      vertex 44 12 41
      vertex 56 0 41
      vertex 44 15 41
    endloop
  endfacet
  facet normal -0 0 1
    outer loop
      vertex 44 10 41
      vertex 56 0 41
      vertex 44 12 41
    endloop
  endfacet
  facet normal 0 -0 1
    outer loop
      vertex 54.1256 -1.99605 41
      vertex 56 0 41
      vertex 44 10 41
    endloop
  endfacet
  facet normal 0 0 1
    outer loop
      vertex 56 0 41
      vertex 54.1256 -1.99605 41
      vertex 55.9842 -0.250666 41
    endloop
  endfacet
  facet normal 0 0 1
    outer loop
      vertex 55.9842 -0.250666 41
      vertex 54.1256 -1.99605 41
      vertex 55.9372 -0.497379 41
    endloop
  endfacet
  facet normal 0 0 1
    outer loop
      vertex 55.9372 -0.497379 41
      vertex 54.1256 -1.99605 41
      vertex 55.8596 -0.736249 41
    endloop
  endfacet
  facet normal 0 0 1
    outer loop
      vertex 55.8596 -0.736249 41
      vertex 54.1256 -1.99605 41
      vertex 55.7526 -0.963507 41
    endloop
  endfacet
  facet normal 0 0 1
    outer loop
      vertex 55.7526 -0.963507 41
      vertex 54.1256 -1.99605 41
      vertex 55.618 -1.17557 41
    endloop
  endfacet
  facet normal 0 0 1
    outer loop
      vertex 55.618 -1.17557 41
      vertex 54.1256 -1.99605 41
      vertex 55.4579 -1.36909 41
    endloop
  endfacet
  facet normal 0 0 1
    outer loop
      vertex 55.4579 -1.36909 41
      vertex 54.1256 -1.99605 41
      vertex 55.2748 -1.54103 41
    endloop
  endfacet
  facet normal 0 0 1
    outer loop
      vertex 55.2748 -1.54103 41
      vertex 54.1256 -1.99605 41
      vertex 55.0717 -1.68865 41
    endloop
  endfacet
  facet normal 0 0 1
    outer loop
      vertex 55.0717 -1.68865 41
      vertex 54.1256 -1.99605 41
      vertex 54.8516 -1.80965 41
    endloop
  endfacet
  facet normal 0 0 1
    outer loop
      vertex 54.8516 -1.80965 41
      vertex 54.1256 -1.99605 41
      vertex 54.618 -1.90211 41
    endloop
  endfacet
  facet normal 0 0 1
    outer loop
      vertex 54.618 -1.90211 41
      vertex 54.1256 -1.99605 41
      vertex 54.3748 -1.96457 41
    endloop
  endfacet
  facet normal -0 0 1
    outer loop
      vertex 10 10 41
      vertex 54.1256 -1.99605 41
      vertex 44 10 41
    endloop
  endfacet
  facet normal 0 0 1
    outer loop
      vertex 10 10 41
      vertex -0.125581 -1.99605 41
      vertex 54.1256 -1.99605 41
    endloop
  endfacet
  facet normal 0 0 1
    outer loop
      vertex 10 45 41
      vertex -2 90 41
      vertex -2 0 41
    endloop
  endfacet
  facet normal 0 0 1
    outer loop
      vertex -2 90 41
      vertex -0.125581 91.9961 41
      vertex -0.374763 91.9646 41
    endloop
  endfacet
  facet normal 0 0 1
    outer loop
      vertex 10 12 41
      vertex -2 0 41
      vertex 10 10 41
    endloop
  endfacet
  facet normal 0 0 1
    outer loop
      vertex -2 90 41
      vertex -0.374763 91.9646 41
      vertex -0.618033 91.9021 41
    endloop
  endfacet
  facet normal 0 0 1
    outer loop
      vertex 10 10 41
      vertex -2 0 41
      vertex -0.125581 -1.99605 41
    endloop
  endfacet
  facet normal 0 0 1
    outer loop
      vertex -2 90 41
      vertex -0.618033 91.9021 41
      vertex -0.851558 91.8097 41
    endloop
  endfacet
  facet normal 0 0 1
    outer loop
      vertex -0.125581 -1.99605 41
      vertex -2 0 41
      vertex -0.374763 -1.96457 41
    endloop
  endfacet
  facet normal 0 0 1
    outer loop
      vertex -2 90 41
      vertex -0.851558 91.8097 41
      vertex -1.07165 91.6887 41
    endloop
  endfacet
  facet normal 0 0 1
    outer loop
      vertex -0.374763 -1.96457 41
      vertex -2 0 41
      vertex -0.618033 -1.90211 41
    endloop
  endfacet
  facet normal 0 0 1
    outer loop
      vertex -2 90 41
      vertex -1.07165 91.6887 41
      vertex -1.27485 91.541 41
    endloop
  endfacet
  facet normal 0 0 1
    outer loop
      vertex -0.618033 -1.90211 41
      vertex -2 0 41
      vertex -0.851558 -1.80965 41
    endloop
  endfacet
  facet normal 0 0 1
    outer loop
      vertex -2 90 41
      vertex -1.27485 91.541 41
      vertex -1.45794 91.3691 41
    endloop
  endfacet
  facet normal 0 0 1
    outer loop
      vertex -0.851558 -1.80965 41
      vertex -2 0 41
      vertex -1.07165 -1.68865 41
    endloop
  endfacet
  facet normal 0 0 1
    outer loop
      vertex -2 90 41
      vertex -1.45794 91.3691 41
      vertex -1.61803 91.1756 41
    endloop
  endfacet
  facet normal 0 0 1
    outer loop
      vertex -1.07165 -1.68865 41
      vertex -2 0 41
      vertex -1.27485 -1.54103 41
    endloop
  endfacet
  facet normal 0 0 1
    outer loop
      vertex -2 90 41
      vertex -1.61803 91.1756 41
      vertex -1.75261 90.9635 41
    endloop
  endfacet
  facet normal 0 0 1
    outer loop
      vertex -1.27485 -1.54103 41
      vertex -2 0 41
      vertex -1.45794 -1.36909 41
    endloop
  endfacet
  facet normal 0 0 1
    outer loop
      vertex -2 90 41
      vertex -1.75261 90.9635 41
      vertex -1.85955 90.7363 41
    endloop
  endfacet
  facet normal 0 0 1
    outer loop
      vertex -1.45794 -1.36909 41
      vertex -2 0 41
      vertex -1.61803 -1.17557 41
    endloop
  endfacet
  facet normal 0 0 1
    outer loop
      vertex -2 90 41
      vertex -1.85955 90.7363 41
      vertex -1.93717 90.4974 41
    endloop
  endfacet
  facet normal 0 0 1
    outer loop
      vertex -1.61803 -1.17557 41
      vertex -2 0 41
      vertex -1.75261 -0.963507 41
    endloop
  endfacet
  facet normal 0 0 1
    outer loop
      vertex -2 90 41
      vertex -1.93717 90.4974 41
      vertex -1.98423 90.2507 41
    endloop
  endfacet
  facet normal 0 0 1
    outer loop
      vertex -1.75261 -0.963507 41
      vertex -2 0 41
      vertex -1.85955 -0.736249 41
    endloop
  endfacet
  facet normal 0 0 1
    outer loop
      vertex -1.85955 -0.736249 41
      vertex -2 0 41
      vertex -1.93717 -0.497379 41
    endloop
  endfacet
  facet normal 0 0 1
    outer loop
      vertex -1.93717 -0.497379 41
      vertex -2 0 41
      vertex -1.98423 -0.250666 41
    endloop
  endfacet
  facet normal 0 -1 0
    outer loop
      vertex -0.125581 -1.99605 20
      vertex 54.1256 -1.99605 41
      vertex -0.125581 -1.99605 41
    endloop
  endfacet
  facet normal 0 -1 -0
    outer loop
      vertex 54.1256 -1.99605 41
      vertex -0.125581 -1.99605 20
      vertex 54.1256 -1.99605 20
    endloop
  endfacet
  facet normal -1 0 0
    outer loop
      vertex -2 0 20
      vertex -2 90 41
      vertex -2 90 20
    endloop
  endfacet
  facet normal -1 -0 0
    outer loop
      vertex -2 90 41
      vertex -2 0 20
      vertex -2 0 41
    endloop
  endfacet
  facet normal -0.125333 -0.992115 0
    outer loop
      vertex -0.374763 -1.96457 20
      vertex -0.125581 -1.99605 41
      vertex -0.374763 -1.96457 41
    endloop
  endfacet
  facet normal -0.125333 -0.992115 -0
    outer loop
      vertex -0.125581 -1.99605 41
      vertex -0.374763 -1.96457 20
      vertex -0.125581 -1.99605 20
    endloop
  endfacet
  facet normal -0.998027 -0.062792 0
    outer loop
      vertex -1.98423 -0.250666 20
      vertex -2 0 41
      vertex -2 0 20
    endloop
  endfacet
  facet normal -0.998027 -0.062792 0
    outer loop
      vertex -2 0 41
      vertex -1.98423 -0.250666 20
      vertex -1.98423 -0.250666 41
    endloop
  endfacet
  facet normal 1 -0 0
    outer loop
      vertex 56 0 41
      vertex 56 90 20
      vertex 56 90 41
    endloop
  endfacet
  facet normal 1 0 0
    outer loop
      vertex 56 90 20
      vertex 56 0 41
      vertex 56 0 20
    endloop
  endfacet
  facet normal -0.684545 -0.72897 0
    outer loop
      vertex -1.45794 -1.36909 20
      vertex -1.27485 -1.54103 41
      vertex -1.45794 -1.36909 41
    endloop
  endfacet
  facet normal -0.684545 -0.72897 -0
    outer loop
      vertex -1.27485 -1.54103 41
      vertex -1.45794 -1.36909 20
      vertex -1.27485 -1.54103 20
    endloop
  endfacet
  facet normal -0.77052 0.637416 0
    outer loop
      vertex -1.61803 91.1756 20
      vertex -1.45794 91.3691 41
      vertex -1.45794 91.3691 20
    endloop
  endfacet
  facet normal -0.77052 0.637416 0
    outer loop
      vertex -1.45794 91.3691 41
      vertex -1.61803 91.1756 20
      vertex -1.61803 91.1756 41
    endloop
  endfacet
  facet normal 0.90483 -0.425773 0
    outer loop
      vertex 55.7526 -0.963507 41
      vertex 55.8596 -0.736249 20
      vertex 55.8596 -0.736249 41
    endloop
  endfacet
  facet normal 0.90483 -0.425773 0
    outer loop
      vertex 55.8596 -0.736249 20
      vertex 55.7526 -0.963507 41
      vertex 55.7526 -0.963507 20
    endloop
  endfacet
  facet normal 0.904829 0.425774 0
    outer loop
      vertex 55.8596 90.7363 41
      vertex 55.7526 90.9635 20
      vertex 55.7526 90.9635 41
    endloop
  endfacet
  facet normal 0.904829 0.425774 0
    outer loop
      vertex 55.7526 90.9635 20
      vertex 55.8596 90.7363 41
      vertex 55.8596 90.7363 20
    endloop
  endfacet
  facet normal 0 1 0
    outer loop
      vertex 54.1256 91.9961 41
      vertex 37 91.9961 22
      vertex -0.125581 91.9961 41
    endloop
  endfacet
  facet normal 0 1 -0
    outer loop
      vertex 54.1256 91.9961 20
      vertex 37 91.9961 22
      vertex 54.1256 91.9961 41
    endloop
  endfacet
  facet normal 0 1 0
    outer loop
      vertex 37 91.9961 22
      vertex 54.1256 91.9961 20
      vertex 37 91.9961 20
    endloop
  endfacet
  facet normal 0 1 -0
    outer loop
      vertex 17 91.9961 22
      vertex -0.125581 91.9961 41
      vertex 37 91.9961 22
    endloop
  endfacet
  facet normal 0 1 0
    outer loop
      vertex -0.125581 91.9961 20
      vertex 17 91.9961 22
      vertex 17 91.9961 20
    endloop
  endfacet
  facet normal 0 1 0
    outer loop
      vertex 17 91.9961 22
      vertex -0.125581 91.9961 20
      vertex -0.125581 91.9961 41
    endloop
  endfacet
  facet normal 0.368131 0.929774 -0
    outer loop
      vertex 54.8516 91.8097 20
      vertex 54.618 91.9021 41
      vertex 54.8516 91.8097 41
    endloop
  endfacet
  facet normal 0.368131 0.929774 0
    outer loop
      vertex 54.618 91.9021 41
      vertex 54.8516 91.8097 20
      vertex 54.618 91.9021 20
    endloop
  endfacet
  facet normal -0.368128 -0.929775 0
    outer loop
      vertex -0.851558 -1.80965 20
      vertex -0.618033 -1.90211 41
      vertex -0.851558 -1.80965 41
    endloop
  endfacet
  facet normal -0.368128 -0.929775 -0
    outer loop
      vertex -0.618033 -1.90211 41
      vertex -0.851558 -1.80965 20
      vertex -0.618033 -1.90211 20
    endloop
  endfacet
  facet normal -0.998027 0.0627924 0
    outer loop
      vertex -2 90 20
      vertex -1.98423 90.2507 41
      vertex -1.98423 90.2507 20
    endloop
  endfacet
  facet normal -0.998027 0.0627924 0
    outer loop
      vertex -1.98423 90.2507 41
      vertex -2 90 20
      vertex -2 90 41
    endloop
  endfacet
  facet normal -0.904827 -0.425779 0
    outer loop
      vertex -1.75261 -0.963507 20
      vertex -1.85955 -0.736249 41
      vertex -1.85955 -0.736249 20
    endloop
  endfacet
  facet normal -0.904827 -0.425779 0
    outer loop
      vertex -1.85955 -0.736249 41
      vertex -1.75261 -0.963507 20
      vertex -1.75261 -0.963507 41
    endloop
  endfacet
  facet normal -0.844328 -0.535826 0
    outer loop
      vertex -1.61803 -1.17557 20
      vertex -1.75261 -0.963507 41
      vertex -1.75261 -0.963507 20
    endloop
  endfacet
  facet normal -0.844328 -0.535826 0
    outer loop
      vertex -1.75261 -0.963507 41
      vertex -1.61803 -1.17557 20
      vertex -1.61803 -1.17557 41
    endloop
  endfacet
  facet normal 0.481751 -0.876308 0
    outer loop
      vertex 54.8516 -1.80965 20
      vertex 55.0717 -1.68865 41
      vertex 54.8516 -1.80965 41
    endloop
  endfacet
  facet normal 0.481751 -0.876308 0
    outer loop
      vertex 55.0717 -1.68865 41
      vertex 54.8516 -1.80965 20
      vertex 55.0717 -1.68865 20
    endloop
  endfacet
  facet normal 0.844324 0.535832 0
    outer loop
      vertex 55.7526 90.9635 41
      vertex 55.618 91.1756 20
      vertex 55.618 91.1756 41
    endloop
  endfacet
  facet normal 0.844324 0.535832 0
    outer loop
      vertex 55.618 91.1756 20
      vertex 55.7526 90.9635 41
      vertex 55.7526 90.9635 20
    endloop
  endfacet
  facet normal 0.951059 0.309011 0
    outer loop
      vertex 55.9372 90.4974 41
      vertex 55.8596 90.7363 20
      vertex 55.8596 90.7363 41
    endloop
  endfacet
  facet normal 0.951059 0.309011 0
    outer loop
      vertex 55.8596 90.7363 20
      vertex 55.9372 90.4974 41
      vertex 55.9372 90.4974 20
    endloop
  endfacet
  facet normal -0.248688 -0.968584 0
    outer loop
      vertex -0.618033 -1.90211 20
      vertex -0.374763 -1.96457 41
      vertex -0.618033 -1.90211 41
    endloop
  endfacet
  facet normal -0.248688 -0.968584 -0
    outer loop
      vertex -0.374763 -1.96457 41
      vertex -0.618033 -1.90211 20
      vertex -0.374763 -1.96457 20
    endloop
  endfacet
  facet normal -0.904826 0.425781 0
    outer loop
      vertex -1.85955 90.7363 20
      vertex -1.75261 90.9635 41
      vertex -1.75261 90.9635 20
    endloop
  endfacet
  facet normal -0.904826 0.425781 0
    outer loop
      vertex -1.75261 90.9635 41
      vertex -1.85955 90.7363 20
      vertex -1.85955 90.7363 41
    endloop
  endfacet
  facet normal -0.951059 0.309011 0
    outer loop
      vertex -1.93717 90.4974 20
      vertex -1.85955 90.7363 41
      vertex -1.85955 90.7363 20
    endloop
  endfacet
  facet normal -0.951059 0.309011 0
    outer loop
      vertex -1.85955 90.7363 41
      vertex -1.93717 90.4974 20
      vertex -1.93717 90.4974 41
    endloop
  endfacet
  facet normal -0.368131 0.929774 0
    outer loop
      vertex -0.618033 91.9021 20
      vertex -0.851558 91.8097 41
      vertex -0.618033 91.9021 41
    endloop
  endfacet
  facet normal -0.368131 0.929774 0
    outer loop
      vertex -0.851558 91.8097 41
      vertex -0.618033 91.9021 20
      vertex -0.851558 91.8097 20
    endloop
  endfacet
  facet normal -0.587785 0.809017 0
    outer loop
      vertex -1.07165 91.6887 20
      vertex -1.27485 91.541 41
      vertex -1.07165 91.6887 41
    endloop
  endfacet
  facet normal -0.587785 0.809017 0
    outer loop
      vertex -1.27485 91.541 41
      vertex -1.07165 91.6887 20
      vertex -1.27485 91.541 20
    endloop
  endfacet
  facet normal -0.481753 -0.876307 0
    outer loop
      vertex -1.07165 -1.68865 20
      vertex -0.851558 -1.80965 41
      vertex -1.07165 -1.68865 41
    endloop
  endfacet
  facet normal -0.481753 -0.876307 -0
    outer loop
      vertex -0.851558 -1.80965 41
      vertex -1.07165 -1.68865 20
      vertex -0.851558 -1.80965 20
    endloop
  endfacet
  facet normal -0.951056 -0.309018 0
    outer loop
      vertex -1.85955 -0.736249 20
      vertex -1.93717 -0.497379 41
      vertex -1.93717 -0.497379 20
    endloop
  endfacet
  facet normal -0.951056 -0.309018 0
    outer loop
      vertex -1.93717 -0.497379 41
      vertex -1.85955 -0.736249 20
      vertex -1.85955 -0.736249 41
    endloop
  endfacet
  facet normal 0.368128 -0.929775 0
    outer loop
      vertex 54.618 -1.90211 20
      vertex 54.8516 -1.80965 41
      vertex 54.618 -1.90211 41
    endloop
  endfacet
  facet normal 0.368128 -0.929775 0
    outer loop
      vertex 54.8516 -1.80965 41
      vertex 54.618 -1.90211 20
      vertex 54.8516 -1.80965 20
    endloop
  endfacet
  facet normal 0.951056 -0.309018 0
    outer loop
      vertex 55.8596 -0.736249 41
      vertex 55.9372 -0.497379 20
      vertex 55.9372 -0.497379 41
    endloop
  endfacet
  facet normal 0.951056 -0.309018 0
    outer loop
      vertex 55.9372 -0.497379 20
      vertex 55.8596 -0.736249 41
      vertex 55.8596 -0.736249 20
    endloop
  endfacet
  facet normal 0.982285 -0.187391 0
    outer loop
      vertex 55.9372 -0.497379 41
      vertex 55.9842 -0.250666 20
      vertex 55.9842 -0.250666 41
    endloop
  endfacet
  facet normal 0.982285 -0.187391 0
    outer loop
      vertex 55.9842 -0.250666 20
      vertex 55.9372 -0.497379 41
      vertex 55.9372 -0.497379 20
    endloop
  endfacet
  facet normal 0.998027 0.0627887 0
    outer loop
      vertex 56 90 41
      vertex 55.9842 90.2507 20
      vertex 55.9842 90.2507 41
    endloop
  endfacet
  facet normal 0.998027 0.0627887 0
    outer loop
      vertex 55.9842 90.2507 20
      vertex 56 90 41
      vertex 56 90 20
    endloop
  endfacet
  facet normal 0.770522 0.637414 0
    outer loop
      vertex 55.618 91.1756 41
      vertex 55.4579 91.3691 20
      vertex 55.4579 91.3691 41
    endloop
  endfacet
  facet normal 0.770522 0.637414 0
    outer loop
      vertex 55.4579 91.3691 20
      vertex 55.618 91.1756 41
      vertex 55.618 91.1756 20
    endloop
  endfacet
  facet normal 0.248692 0.968583 -0
    outer loop
      vertex 54.618 91.9021 20
      vertex 54.3748 91.9646 41
      vertex 54.618 91.9021 41
    endloop
  endfacet
  facet normal 0.248692 0.968583 0
    outer loop
      vertex 54.3748 91.9646 41
      vertex 54.618 91.9021 20
      vertex 54.3748 91.9646 20
    endloop
  endfacet
  facet normal 0.125332 0.992115 -0
    outer loop
      vertex 54.3748 91.9646 20
      vertex 54.1256 91.9961 41
      vertex 54.3748 91.9646 41
    endloop
  endfacet
  facet normal 0.125332 0.992115 0
    outer loop
      vertex 54.1256 91.9961 41
      vertex 54.3748 91.9646 20
      vertex 54.1256 91.9961 20
    endloop
  endfacet
  facet normal 0.481763 0.876302 -0
    outer loop
      vertex 55.0717 91.6887 20
      vertex 54.8516 91.8097 41
      vertex 55.0717 91.6887 41
    endloop
  endfacet
  facet normal 0.481763 0.876302 0
    outer loop
      vertex 54.8516 91.8097 41
      vertex 55.0717 91.6887 20
      vertex 54.8516 91.8097 20
    endloop
  endfacet
  facet normal -0.844323 0.535835 0
    outer loop
      vertex -1.75261 90.9635 20
      vertex -1.61803 91.1756 41
      vertex -1.61803 91.1756 20
    endloop
  endfacet
  facet normal -0.844323 0.535835 0
    outer loop
      vertex -1.61803 91.1756 41
      vertex -1.75261 90.9635 20
      vertex -1.75261 90.9635 41
    endloop
  endfacet
  facet normal -0.982287 0.187382 0
    outer loop
      vertex -1.98423 90.2507 20
      vertex -1.93717 90.4974 41
      vertex -1.93717 90.4974 20
    endloop
  endfacet
  facet normal -0.982287 0.187382 0
    outer loop
      vertex -1.93717 90.4974 41
      vertex -1.98423 90.2507 20
      vertex -1.98423 90.2507 41
    endloop
  endfacet
  facet normal -0.684537 0.728978 0
    outer loop
      vertex -1.27485 91.541 20
      vertex -1.45794 91.3691 41
      vertex -1.27485 91.541 41
    endloop
  endfacet
  facet normal -0.684537 0.728978 0
    outer loop
      vertex -1.45794 91.3691 41
      vertex -1.27485 91.541 20
      vertex -1.45794 91.3691 20
    endloop
  endfacet
  facet normal -0.587785 -0.809017 0
    outer loop
      vertex -1.27485 -1.54103 20
      vertex -1.07165 -1.68865 41
      vertex -1.27485 -1.54103 41
    endloop
  endfacet
  facet normal -0.587785 -0.809017 -0
    outer loop
      vertex -1.07165 -1.68865 41
      vertex -1.27485 -1.54103 20
      vertex -1.07165 -1.68865 20
    endloop
  endfacet
  facet normal -0.982287 -0.18738 0
    outer loop
      vertex -1.93717 -0.497379 20
      vertex -1.98423 -0.250666 41
      vertex -1.98423 -0.250666 20
    endloop
  endfacet
  facet normal -0.982287 -0.18738 0
    outer loop
      vertex -1.98423 -0.250666 41
      vertex -1.93717 -0.497379 20
      vertex -1.93717 -0.497379 41
    endloop
  endfacet
  facet normal -0.770514 -0.637423 0
    outer loop
      vertex -1.45794 -1.36909 20
      vertex -1.61803 -1.17557 41
      vertex -1.61803 -1.17557 20
    endloop
  endfacet
  facet normal -0.770514 -0.637423 0
    outer loop
      vertex -1.61803 -1.17557 41
      vertex -1.45794 -1.36909 20
      vertex -1.45794 -1.36909 41
    endloop
  endfacet
  facet normal 0.125332 -0.992115 0
    outer loop
      vertex 54.1256 -1.99605 20
      vertex 54.3748 -1.96457 41
      vertex 54.1256 -1.99605 41
    endloop
  endfacet
  facet normal 0.125332 -0.992115 0
    outer loop
      vertex 54.3748 -1.96457 41
      vertex 54.1256 -1.99605 20
      vertex 54.3748 -1.96457 20
    endloop
  endfacet
  facet normal 0.248688 -0.968584 0
    outer loop
      vertex 54.3748 -1.96457 20
      vertex 54.618 -1.90211 41
      vertex 54.3748 -1.96457 41
    endloop
  endfacet
  facet normal 0.248688 -0.968584 0
    outer loop
      vertex 54.618 -1.90211 41
      vertex 54.3748 -1.96457 20
      vertex 54.618 -1.90211 20
    endloop
  endfacet
  facet normal 0.770516 -0.637421 0
    outer loop
      vertex 55.4579 -1.36909 41
      vertex 55.618 -1.17557 20
      vertex 55.618 -1.17557 41
    endloop
  endfacet
  facet normal 0.770516 -0.637421 0
    outer loop
      vertex 55.618 -1.17557 20
      vertex 55.4579 -1.36909 41
      vertex 55.4579 -1.36909 20
    endloop
  endfacet
  facet normal 0.84433 -0.535824 0
    outer loop
      vertex 55.618 -1.17557 41
      vertex 55.7526 -0.963507 20
      vertex 55.7526 -0.963507 41
    endloop
  endfacet
  facet normal 0.84433 -0.535824 0
    outer loop
      vertex 55.7526 -0.963507 20
      vertex 55.618 -1.17557 41
      vertex 55.618 -1.17557 20
    endloop
  endfacet
  facet normal 0.998027 -0.0627882 0
    outer loop
      vertex 55.9842 -0.250666 41
      vertex 56 0 20
      vertex 56 0 41
    endloop
  endfacet
  facet normal 0.998027 -0.0627882 0
    outer loop
      vertex 56 0 20
      vertex 55.9842 -0.250666 41
      vertex 55.9842 -0.250666 20
    endloop
  endfacet
  facet normal 0.982285 0.187393 0
    outer loop
      vertex 55.9842 90.2507 41
      vertex 55.9372 90.4974 20
      vertex 55.9372 90.4974 41
    endloop
  endfacet
  facet normal 0.982285 0.187393 0
    outer loop
      vertex 55.9372 90.4974 20
      vertex 55.9842 90.2507 41
      vertex 55.9842 90.2507 20
    endloop
  endfacet
  facet normal 0.587785 0.809017 -0
    outer loop
      vertex 55.2748 91.541 20
      vertex 55.0717 91.6887 41
      vertex 55.2748 91.541 41
    endloop
  endfacet
  facet normal 0.587785 0.809017 0
    outer loop
      vertex 55.0717 91.6887 41
      vertex 55.2748 91.541 20
      vertex 55.0717 91.6887 20
    endloop
  endfacet
  facet normal 0.684537 0.728978 -0
    outer loop
      vertex 55.4579 91.3691 20
      vertex 55.2748 91.541 41
      vertex 55.4579 91.3691 41
    endloop
  endfacet
  facet normal 0.684537 0.728978 0
    outer loop
      vertex 55.2748 91.541 41
      vertex 55.4579 91.3691 20
      vertex 55.2748 91.541 20
    endloop
  endfacet
  facet normal -0.248692 0.968583 0
    outer loop
      vertex -0.374763 91.9646 20
      vertex -0.618033 91.9021 41
      vertex -0.374763 91.9646 41
    endloop
  endfacet
  facet normal -0.248692 0.968583 0
    outer loop
      vertex -0.618033 91.9021 41
      vertex -0.374763 91.9646 20
      vertex -0.618033 91.9021 20
    endloop
  endfacet
  facet normal -0.125333 0.992115 0
    outer loop
      vertex -0.125581 91.9961 20
      vertex -0.374763 91.9646 41
      vertex -0.125581 91.9961 41
    endloop
  endfacet
  facet normal -0.125333 0.992115 0
    outer loop
      vertex -0.374763 91.9646 41
      vertex -0.125581 91.9961 20
      vertex -0.374763 91.9646 20
    endloop
  endfacet
  facet normal -0.481765 0.876301 0
    outer loop
      vertex -0.851558 91.8097 20
      vertex -1.07165 91.6887 41
      vertex -0.851558 91.8097 41
    endloop
  endfacet
  facet normal -0.481765 0.876301 0
    outer loop
      vertex -1.07165 91.6887 41
      vertex -0.851558 91.8097 20
      vertex -1.07165 91.6887 20
    endloop
  endfacet
  facet normal 0.587785 -0.809017 0
    outer loop
      vertex 55.0717 -1.68865 20
      vertex 55.2748 -1.54103 41
      vertex 55.0717 -1.68865 41
    endloop
  endfacet
  facet normal 0.587785 -0.809017 0
    outer loop
      vertex 55.2748 -1.54103 41
      vertex 55.0717 -1.68865 20
      vertex 55.2748 -1.54103 20
    endloop
  endfacet
  facet normal 0.684545 -0.72897 0
    outer loop
      vertex 55.2748 -1.54103 20
      vertex 55.4579 -1.36909 41
      vertex 55.2748 -1.54103 41
    endloop
  endfacet
  facet normal 0.684545 -0.72897 0
    outer loop
      vertex 55.4579 -1.36909 41
      vertex 55.2748 -1.54103 20
      vertex 55.4579 -1.36909 20
    endloop
  endfacet
  facet normal 1 -0 0
    outer loop
      vertex 0 0 40
      vertex 0 90 20
      vertex 0 90 40
    endloop
  endfacet
  facet normal 1 0 0
    outer loop
      vertex 0 90 20
      vertex 0 0 40
      vertex 0 0 20
    endloop
  endfacet
  facet normal -1 0 0
    outer loop
      vertex 54 0 20
      vertex 54 90 40
      vertex 54 90 20
    endloop
  endfacet
  facet normal -1 -0 0
    outer loop
      vertex 54 90 40
      vertex 54 0 20
      vertex 54 0 40
    endloop
  endfacet
  facet normal 0 -1 0
    outer loop
      vertex 0 90 40
      vertex 17 90 22
      vertex 54 90 40
    endloop
  endfacet
  facet normal 0 -1 0
    outer loop
      vertex 0 90 20
      vertex 17 90 22
      vertex 0 90 40
    endloop
  endfacet
  facet normal 0 -1 -0
    outer loop
      vertex 17 90 22
      vertex 0 90 20
      vertex 17 90 20
    endloop
  endfacet
  facet normal 0 -1 0
    outer loop
      vertex 37 90 22
      vertex 54 90 40
      vertex 17 90 22
    endloop
  endfacet
  facet normal 0 -1 0
    outer loop
      vertex 54 90 20
      vertex 37 90 22
      vertex 37 90 20
    endloop
  endfacet
  facet normal 0 -1 0
    outer loop
      vertex 37 90 22
      vertex 54 90 20
      vertex 54 90 40
    endloop
  endfacet
  facet normal 0 1 -0
    outer loop
      vertex 54 0 20
      vertex 0 0 40
      vertex 54 0 40
    endloop
  endfacet
  facet normal 0 1 0
    outer loop
      vertex 0 0 40
      vertex 54 0 20
      vertex 0 0 20
    endloop
  endfacet
  facet normal 1 -0 0
    outer loop
      vertex 17 90 22
      vertex 17 91.9961 20
      vertex 17 91.9961 22
    endloop
  endfacet
  facet normal 1 0 0
    outer loop
      vertex 17 91.9961 20
      vertex 17 90 22
      vertex 17 90 20
    endloop
  endfacet
  facet normal 0 0 -1
    outer loop
      vertex 17 90 22
      vertex 37 91.9961 22
      vertex 37 90 22
    endloop
  endfacet
  facet normal -0 0 -1
    outer loop
      vertex 37 91.9961 22
      vertex 17 90 22
      vertex 17 91.9961 22
    endloop
  endfacet
  facet normal -1 0 0
    outer loop
      vertex 37 90 20
      vertex 37 91.9961 22
      vertex 37 91.9961 20
    endloop
  endfacet
  facet normal -1 -0 0
    outer loop
      vertex 37 91.9961 22
      vertex 37 90 20
      vertex 37 90 22
    endloop
  endfacet
  facet normal 0 0 -1
    outer loop
      vertex 54 0 20
      vertex 56 0 20
      vertex 55.9842 -0.250666 20
    endloop
  endfacet
  facet normal 0 0 -1
    outer loop
      vertex 56 0 20
      vertex 54 0 20
      vertex 56 90 20
    endloop
  endfacet
  facet normal 0 0 -1
    outer loop
      vertex 54 0 20
      vertex 55.9842 -0.250666 20
      vertex 55.9372 -0.497379 20
    endloop
  endfacet
  facet normal 0 0 -1
    outer loop
      vertex 54 90 20
      vertex 56 90 20
      vertex 54 0 20
    endloop
  endfacet
  facet normal 0 0 -1
    outer loop
      vertex 54 0 20
      vertex 55.9372 -0.497379 20
      vertex 55.8596 -0.736249 20
    endloop
  endfacet
  facet normal 0 0 -1
    outer loop
      vertex 56 90 20
      vertex 54 90 20
      vertex 55.9842 90.2507 20
    endloop
  endfacet
  facet normal 0 0 -1
    outer loop
      vertex 54 0 20
      vertex 55.8596 -0.736249 20
      vertex 55.7526 -0.963507 20
    endloop
  endfacet
  facet normal -0 0 -1
    outer loop
      vertex 55.9842 90.2507 20
      vertex 54 90 20
      vertex 55.9372 90.4974 20
    endloop
  endfacet
  facet normal 0 0 -1
    outer loop
      vertex 54 0 20
      vertex 55.7526 -0.963507 20
      vertex 55.618 -1.17557 20
    endloop
  endfacet
  facet normal -0 0 -1
    outer loop
      vertex 55.9372 90.4974 20
      vertex 54 90 20
      vertex 55.8596 90.7363 20
    endloop
  endfacet
  facet normal 0 0 -1
    outer loop
      vertex 54 0 20
      vertex 55.618 -1.17557 20
      vertex 55.4579 -1.36909 20
    endloop
  endfacet
  facet normal -0 0 -1
    outer loop
      vertex 55.8596 90.7363 20
      vertex 54 90 20
      vertex 55.7526 90.9635 20
    endloop
  endfacet
  facet normal 0 0 -1
    outer loop
      vertex 54 0 20
      vertex 55.4579 -1.36909 20
      vertex 55.2748 -1.54103 20
    endloop
  endfacet
  facet normal -0 0 -1
    outer loop
      vertex 55.7526 90.9635 20
      vertex 54 90 20
      vertex 55.618 91.1756 20
    endloop
  endfacet
  facet normal 0 0 -1
    outer loop
      vertex 54 0 20
      vertex 55.2748 -1.54103 20
      vertex 55.0717 -1.68865 20
    endloop
  endfacet
  facet normal -0 0 -1
    outer loop
      vertex 55.618 91.1756 20
      vertex 54 90 20
      vertex 55.4579 91.3691 20
    endloop
  endfacet
  facet normal 0 0 -1
    outer loop
      vertex 54 0 20
      vertex 55.0717 -1.68865 20
      vertex 54.8516 -1.80965 20
    endloop
  endfacet
  facet normal -0 0 -1
    outer loop
      vertex 55.4579 91.3691 20
      vertex 54 90 20
      vertex 55.2748 91.541 20
    endloop
  endfacet
  facet normal 0 0 -1
    outer loop
      vertex 54 0 20
      vertex 54.8516 -1.80965 20
      vertex 54.618 -1.90211 20
    endloop
  endfacet
  facet normal -0 0 -1
    outer loop
      vertex 55.2748 91.541 20
      vertex 54 90 20
      vertex 55.0717 91.6887 20
    endloop
  endfacet
  facet normal 0 0 -1
    outer loop
      vertex 54 0 20
      vertex 54.618 -1.90211 20
      vertex 54.3748 -1.96457 20
    endloop
  endfacet
  facet normal -0 0 -1
    outer loop
      vertex 55.0717 91.6887 20
      vertex 54 90 20
      vertex 54.8516 91.8097 20
    endloop
  endfacet
  facet normal 0 0 -1
    outer loop
      vertex 54 0 20
      vertex 54.3748 -1.96457 20
      vertex 54.1256 -1.99605 20
    endloop
  endfacet
  facet normal -0 0 -1
    outer loop
      vertex 54.8516 91.8097 20
      vertex 54 90 20
      vertex 54.618 91.9021 20
    endloop
  endfacet
  facet normal -0 0 -1
    outer loop
      vertex 54.618 91.9021 20
      vertex 54 90 20
      vertex 54.3748 91.9646 20
    endloop
  endfacet
  facet normal 0 0 -1
    outer loop
      vertex 54.1256 -1.99605 20
      vertex 0 0 20
      vertex 54 0 20
    endloop
  endfacet
  facet normal 0 0 -1
    outer loop
      vertex -0.374763 -1.96457 20
      vertex 0 0 20
      vertex -0.125581 -1.99605 20
    endloop
  endfacet
  facet normal 0 0 -1
    outer loop
      vertex -0.125581 -1.99605 20
      vertex 0 0 20
      vertex 54.1256 -1.99605 20
    endloop
  endfacet
  facet normal -0 0 -1
    outer loop
      vertex 54.3748 91.9646 20
      vertex 54 90 20
      vertex 54.1256 91.9961 20
    endloop
  endfacet
  facet normal 0 0 -1
    outer loop
      vertex 37 91.9961 20
      vertex 54 90 20
      vertex 37 90 20
    endloop
  endfacet
  facet normal 0 0 -1
    outer loop
      vertex 54 90 20
      vertex 37 91.9961 20
      vertex 54.1256 91.9961 20
    endloop
  endfacet
  facet normal 0 0 -1
    outer loop
      vertex 0 90 20
      vertex 17 91.9961 20
      vertex 17 90 20
    endloop
  endfacet
  facet normal 0 0 -1
    outer loop
      vertex 0 90 20
      vertex -0.125581 91.9961 20
      vertex 17 91.9961 20
    endloop
  endfacet
  facet normal 0 0 -1
    outer loop
      vertex 0 0 20
      vertex -2 0 20
      vertex 0 90 20
    endloop
  endfacet
  facet normal 0 0 -1
    outer loop
      vertex -0.618033 -1.90211 20
      vertex 0 0 20
      vertex -0.374763 -1.96457 20
    endloop
  endfacet
  facet normal 0 0 -1
    outer loop
      vertex -2 90 20
      vertex 0 90 20
      vertex -2 0 20
    endloop
  endfacet
  facet normal 0 0 -1
    outer loop
      vertex -0.851558 -1.80965 20
      vertex 0 0 20
      vertex -0.618033 -1.90211 20
    endloop
  endfacet
  facet normal 0 -0 -1
    outer loop
      vertex -1.98423 90.2507 20
      vertex 0 90 20
      vertex -2 90 20
    endloop
  endfacet
  facet normal 0 0 -1
    outer loop
      vertex -1.07165 -1.68865 20
      vertex 0 0 20
      vertex -0.851558 -1.80965 20
    endloop
  endfacet
  facet normal 0 0 -1
    outer loop
      vertex 0 90 20
      vertex -0.374763 91.9646 20
      vertex -0.125581 91.9961 20
    endloop
  endfacet
  facet normal 0 0 -1
    outer loop
      vertex -1.27485 -1.54103 20
      vertex 0 0 20
      vertex -1.07165 -1.68865 20
    endloop
  endfacet
  facet normal 0 0 -1
    outer loop
      vertex 0 90 20
      vertex -0.618033 91.9021 20
      vertex -0.374763 91.9646 20
    endloop
  endfacet
  facet normal 0 0 -1
    outer loop
      vertex -1.45794 -1.36909 20
      vertex 0 0 20
      vertex -1.27485 -1.54103 20
    endloop
  endfacet
  facet normal 0 0 -1
    outer loop
      vertex 0 90 20
      vertex -0.851558 91.8097 20
      vertex -0.618033 91.9021 20
    endloop
  endfacet
  facet normal 0 0 -1
    outer loop
      vertex -1.61803 -1.17557 20
      vertex 0 0 20
      vertex -1.45794 -1.36909 20
    endloop
  endfacet
  facet normal 0 0 -1
    outer loop
      vertex 0 90 20
      vertex -1.07165 91.6887 20
      vertex -0.851558 91.8097 20
    endloop
  endfacet
  facet normal 0 0 -1
    outer loop
      vertex -1.75261 -0.963507 20
      vertex 0 0 20
      vertex -1.61803 -1.17557 20
    endloop
  endfacet
  facet normal 0 0 -1
    outer loop
      vertex 0 90 20
      vertex -1.27485 91.541 20
      vertex -1.07165 91.6887 20
    endloop
  endfacet
  facet normal 0 0 -1
    outer loop
      vertex -1.85955 -0.736249 20
      vertex 0 0 20
      vertex -1.75261 -0.963507 20
    endloop
  endfacet
  facet normal 0 0 -1
    outer loop
      vertex 0 90 20
      vertex -1.45794 91.3691 20
      vertex -1.27485 91.541 20
    endloop
  endfacet
  facet normal 0 0 -1
    outer loop
      vertex -1.93717 -0.497379 20
      vertex 0 0 20
      vertex -1.85955 -0.736249 20
    endloop
  endfacet
  facet normal 0 0 -1
    outer loop
      vertex 0 90 20
      vertex -1.61803 91.1756 20
      vertex -1.45794 91.3691 20
    endloop
  endfacet
  facet normal 0 0 -1
    outer loop
      vertex -1.98423 -0.250666 20
      vertex 0 0 20
      vertex -1.93717 -0.497379 20
    endloop
  endfacet
  facet normal 0 0 -1
    outer loop
      vertex 0 90 20
      vertex -1.75261 90.9635 20
      vertex -1.61803 91.1756 20
    endloop
  endfacet
  facet normal -0 0 -1
    outer loop
      vertex 0 0 20
      vertex -1.98423 -0.250666 20
      vertex -2 0 20
    endloop
  endfacet
  facet normal 0 0 -1
    outer loop
      vertex 0 90 20
      vertex -1.85955 90.7363 20
      vertex -1.75261 90.9635 20
    endloop
  endfacet
  facet normal 0 0 -1
    outer loop
      vertex 0 90 20
      vertex -1.93717 90.4974 20
      vertex -1.85955 90.7363 20
    endloop
  endfacet
  facet normal 0 0 -1
    outer loop
      vertex 0 90 20
      vertex -1.98423 90.2507 20
      vertex -1.93717 90.4974 20
    endloop
  endfacet
endsolid OpenSCAD_Model
